<svg width="15" height="16" viewBox="0 0 15 16" fill="none" xmlns="http://www.w3.org/2000/svg">
<path d="M13.875 8.20833V10.3333C13.875 11.0848 13.5765 11.8054 13.0451 12.3368C12.5138 12.8682 11.7931 13.1667 11.0417 13.1667H3.95833C3.20689 13.1667 2.48622 12.8682 1.95486 12.3368C1.42351 11.8054 1.125 11.0848 1.125 10.3333V8.63333C1.125 8.52062 1.16978 8.41252 1.24948 8.33281C1.32918 8.25311 1.43728 8.20833 1.55 8.20833H13.875ZM13.875 8.20833V3.95833C13.875 3.20689 13.5765 2.48622 13.0451 1.95486C12.5138 1.42351 11.7931 1.125 11.0417 1.125H7.5M10.3333 13.1667L11.0417 14.5833M4.66667 13.1667L3.95833 14.5833" stroke="#0F2C59" stroke-width="1.5" stroke-linecap="round" stroke-linejoin="round"/>
<path d="M9.90828 4.66667H5.09162C4.85716 4.66667 4.66945 4.47683 4.69495 4.24308C4.79837 3.30312 5.27791 1.125 7.49995 1.125C9.72199 1.125 10.2015 3.30312 10.305 4.24308C10.3305 4.47683 10.1427 4.66667 9.90828 4.66667Z" stroke="#0F2C59" stroke-width="1.5" stroke-linecap="round" stroke-linejoin="round"/>
</svg>
