<svg width="15" height="11" viewBox="0 0 15 11" fill="none" xmlns="http://www.w3.org/2000/svg">
<path d="M0.416748 10.4582V6.20817C0.416748 5.88942 0.481679 5.60018 0.61154 5.34046C0.741401 5.08074 0.912581 4.85053 1.12508 4.64984V2.6665C1.12508 2.07623 1.33168 1.57449 1.74487 1.1613C2.15807 0.748101 2.6598 0.541504 3.25008 0.541504H6.08342C6.35494 0.541504 6.60876 0.591795 6.84487 0.692379C7.08098 0.792962 7.29939 0.93156 7.50008 1.10817C7.70078 0.931087 7.91918 0.79249 8.15529 0.692379C8.3914 0.592268 8.64522 0.541976 8.91675 0.541504H11.7501C12.3404 0.541504 12.8421 0.748101 13.2553 1.1613C13.6685 1.57449 13.8751 2.07623 13.8751 2.6665V4.64984C14.0876 4.85053 14.2588 5.08074 14.3886 5.34046C14.5185 5.60018 14.5834 5.88942 14.5834 6.20817V10.4582H13.1667V9.0415H1.83341V10.4582H0.416748ZM8.20842 4.08317H12.4584V2.6665C12.4584 2.46581 12.3904 2.29746 12.2544 2.16146C12.1184 2.02546 11.9503 1.9577 11.7501 1.95817H8.91675C8.71605 1.95817 8.54771 2.02617 8.41171 2.16217C8.27571 2.29817 8.20794 2.46628 8.20842 2.6665V4.08317ZM2.54175 4.08317H6.79175V2.6665C6.79175 2.46581 6.72375 2.29746 6.58775 2.16146C6.45175 2.02546 6.28364 1.9577 6.08342 1.95817H3.25008C3.04939 1.95817 2.88104 2.02617 2.74504 2.16217C2.60904 2.29817 2.54128 2.46628 2.54175 2.6665V4.08317ZM1.83341 7.62484H13.1667V6.20817C13.1667 6.00748 13.0987 5.83913 12.9627 5.70313C12.8267 5.56713 12.6586 5.49937 12.4584 5.49984H2.54175C2.34105 5.49984 2.17271 5.56784 2.03671 5.70384C1.90071 5.83984 1.83294 6.00795 1.83341 6.20817V7.62484Z" fill="#0F2C59"/>
</svg>
