<svg width="241" height="247" viewBox="0 0 241 247" fill="none" xmlns="http://www.w3.org/2000/svg">
<path d="M8.01022 111.493V139.825C8.01022 142.287 8.98831 144.649 10.7293 146.39C12.4703 148.131 14.8317 149.109 17.2938 149.109H118.878C121.339 149.107 123.699 148.128 125.439 146.388C127.179 144.647 128.156 142.286 128.156 139.825V115.888L140.806 102.601L17.3295 102.215C16.1079 102.21 14.8973 102.447 13.7672 102.911C12.6372 103.375 11.6098 104.057 10.744 104.919C9.87826 105.781 9.19112 106.805 8.722 107.933C8.25287 109.061 8.01099 110.271 8.01022 111.493Z" fill="#F5F5F5"/>
<path d="M113.181 119.378L21.0049 118.95L21.0108 116.119L113.193 116.541L113.181 119.378Z" fill="#E0E0E0"/>
<path d="M113.181 128.699L21.0049 128.276L21.0108 125.439L113.193 125.868L113.181 128.699Z" fill="#E0E0E0"/>
<path d="M76.7146 134.771L76.7008 137.602L113.175 137.78L113.189 134.949L76.7146 134.771Z" fill="#E0E0E0"/>
<path d="M102.137 209.384V237.717C102.137 240.179 103.115 242.54 104.856 244.281C106.597 246.022 108.958 247 111.421 247H212.993C215.454 246.999 217.814 246.02 219.554 244.279C221.294 242.538 222.271 240.178 222.271 237.717V213.779L234.921 200.493L111.438 200.106C110.218 200.104 109.01 200.342 107.882 200.807C106.754 201.273 105.728 201.955 104.864 202.817C104.001 203.679 103.315 204.702 102.847 205.829C102.379 206.956 102.138 208.164 102.137 209.384Z" fill="#F5F5F5"/>
<path d="M207.754 216.533L115.572 216.11L115.578 213.273L207.76 213.702L207.754 216.533Z" fill="#E0E0E0"/>
<path d="M207.754 225.852L115.572 225.43L115.578 222.593L207.76 223.021L207.754 225.852Z" fill="#E0E0E0"/>
<path d="M171.278 231.918L171.265 234.749L207.738 234.927L207.752 232.096L171.278 231.918Z" fill="#E0E0E0"/>
<path d="M62.3086 4.77588H122.221C123.64 4.77588 125.002 5.3398 126.006 6.34359C127.009 7.34738 127.573 8.70881 127.573 10.1284V39.4303C127.573 40.8499 127.009 42.2113 126.006 43.2151C125.002 44.2189 123.64 44.7828 122.221 44.7828H71.384C69.9644 44.7828 68.603 44.2189 67.5992 43.2151C66.5954 42.2113 66.0315 40.8499 66.0315 39.4303V8.481L62.3086 4.77588Z" fill="#F5F5F5"/>
<path d="M97.0222 33.2638V52.057C97.0222 53.6895 96.3737 55.2551 95.2194 56.4095C94.065 57.5639 92.4994 58.2124 90.8669 58.2124H23.5086C22.6985 58.2147 21.8959 58.0573 21.1467 57.7491C20.3975 57.4408 19.7164 56.9879 19.1425 56.4162C18.5685 55.8444 18.113 55.1651 17.8019 54.4171C17.4908 53.6691 17.3303 52.8671 17.3295 52.057V36.1779L8.96768 27.3641L90.8669 27.1084C92.4994 27.1084 94.065 27.7569 95.2194 28.9113C96.3737 30.0656 97.0222 31.6313 97.0222 33.2638Z" fill="#E0E0E0"/>
<path d="M27.2851 38.4909L88.4225 38.2114L88.4165 36.332L27.2791 36.6175L27.2851 38.4909Z" fill="#F5F5F5"/>
<path d="M27.2851 44.6764L88.4225 44.391L88.4165 42.5176L27.2791 42.7971L27.2851 44.6764Z" fill="#F5F5F5"/>
<path d="M51.1277 49.0703H26.9344V50.9496H51.1277V49.0703Z" fill="#F5F5F5"/>
<path d="M224.673 120.396V139.189C224.673 140.821 224.025 142.387 222.87 143.541C221.716 144.696 220.151 145.344 218.518 145.344H151.142C149.509 145.344 147.943 144.696 146.787 143.542C145.632 142.388 144.982 140.822 144.981 139.189V123.31L136.595 114.496L218.494 114.24C219.304 114.238 220.107 114.395 220.856 114.704C221.605 115.012 222.286 115.465 222.86 116.036C223.434 116.608 223.89 117.287 224.201 118.035C224.512 118.784 224.673 119.586 224.673 120.396Z" fill="#E0E0E0"/>
<path d="M154.918 125.63L216.062 125.344L216.05 123.465L154.913 123.75L154.918 125.63Z" fill="#F5F5F5"/>
<path d="M154.918 131.809L216.062 131.53L216.05 129.65L154.913 129.93L154.918 131.809Z" fill="#F5F5F5"/>
<path d="M178.333 136.834H154.139V138.713H178.333V136.834Z" fill="#F5F5F5"/>
<path d="M166.961 213.678C156.892 203.871 156.726 188.7 159.343 175.527C159.783 173.326 159.937 170.953 161.293 169.181C162.649 167.409 165.332 166.487 167.163 167.748C168.68 168.789 169.084 170.817 169.744 172.547C170.624 174.858 172.142 176.871 174.122 178.352C175.412 179.315 177.095 180.047 178.594 179.511C180.675 178.768 181.336 176.169 181.68 173.969C182.323 169.861 182.969 165.755 183.619 161.652C183.964 159.445 184.327 157.197 185.35 155.223C186.373 153.248 188.211 151.554 190.399 151.31C192.588 151.066 194.978 152.695 195.068 154.926C195 155.849 194.871 156.767 194.681 157.673C194.592 158.595 194.854 159.677 195.68 160.052C196.507 160.427 197.5 159.975 198.261 159.457C200.896 157.608 202.906 155.003 204.803 152.392C206.7 149.781 208.586 147.093 211.048 145.006C213.51 142.918 216.668 141.467 219.85 141.806C223.031 142.145 226.076 144.637 226.362 147.872C226.647 151.107 224.328 153.956 221.949 156.145C218.417 159.391 214.435 162.112 210.126 164.221C209.353 164.602 208.514 165.006 208.116 165.779C207.396 167.171 208.55 168.854 209.9 169.574C211.452 170.388 213.254 170.507 214.937 170.995C216.62 171.483 218.357 172.535 218.744 174.266C219.273 176.645 217.007 178.709 214.902 179.951C210.687 182.438 206.076 184.18 201.271 185.102C199.558 185.429 197.768 185.667 196.275 186.595C194.782 187.522 193.676 189.366 194.211 191.043C194.746 192.72 196.685 193.553 198.434 193.517C200.182 193.481 201.847 192.803 203.566 192.459C206.778 191.816 210.649 192.661 212.154 195.593C213.147 197.52 212.868 199.928 211.886 201.873C210.821 203.771 209.385 205.436 207.664 206.768C201.883 211.656 194.931 215.219 187.515 216.503C180.098 217.788 173.497 217.383 166.943 213.69" fill="#EB7910"/>
<path d="M165.177 223.479C166.792 217.433 168.982 211.556 171.719 205.929C175.102 199.07 178.875 192.41 183.019 185.982L186.254 180.909C187.319 179.244 188.371 177.59 189.507 176.044C191.692 173.067 194.041 170.214 196.543 167.498C198.922 164.887 201.241 162.502 203.448 160.284C205.654 158.066 207.747 156.049 209.74 154.289C212.863 151.491 216.204 148.945 219.731 146.677C220.98 145.874 221.967 145.279 222.639 144.892L223.412 144.446C223.503 144.39 223.598 144.342 223.698 144.304C223.62 144.37 223.536 144.43 223.448 144.482L222.699 144.958C222.039 145.368 221.069 145.981 219.838 146.807C216.351 149.119 213.045 151.691 209.948 154.503C207.973 156.287 205.898 158.303 203.703 160.522C201.509 162.74 199.189 165.143 196.84 167.748C194.364 170.458 192.037 173.301 189.87 176.264C188.746 177.804 187.699 179.446 186.635 181.111C185.57 182.776 184.5 184.471 183.405 186.184C179.274 192.601 175.502 199.243 172.106 206.077C169.356 211.676 167.138 217.52 165.48 223.533" fill="#263238"/>
<path d="M189.644 176.044C189.591 175.722 189.572 175.395 189.584 175.069C189.584 174.444 189.584 173.534 189.584 172.416C189.632 170.174 189.804 167.064 190.001 163.668C190.197 160.272 190.334 157.174 190.346 154.931C190.346 153.813 190.346 152.909 190.346 152.285C190.32 151.96 190.332 151.632 190.381 151.31C190.455 151.628 190.497 151.952 190.506 152.279C190.566 152.874 190.607 153.807 190.637 154.931C190.697 157.174 190.637 160.284 190.411 163.692C190.185 167.099 190.019 170.103 189.87 172.428C189.816 173.475 189.769 174.361 189.727 175.075C189.737 175.4 189.709 175.725 189.644 176.044Z" fill="#263238"/>
<path d="M218.803 175.39C218.42 175.412 218.035 175.396 217.655 175.342C216.918 175.289 215.871 175.199 214.533 175.14C211.892 174.997 208.247 174.926 204.214 175.021C200.182 175.116 196.543 175.372 193.908 175.616C192.594 175.735 191.529 175.86 190.798 175.943C190.417 176.009 190.03 176.039 189.644 176.032C190.012 175.915 190.39 175.832 190.774 175.782C191.505 175.651 192.558 175.485 193.878 175.324C196.513 174.991 200.164 174.7 204.208 174.593C207.658 174.498 211.11 174.58 214.551 174.837C215.871 174.938 216.93 175.063 217.673 175.17C218.056 175.206 218.434 175.28 218.803 175.39Z" fill="#263238"/>
<path d="M172.177 205.465C172.177 205.465 172.117 205.34 172.04 205.09C171.963 204.84 171.85 204.43 171.719 203.984C171.451 203.026 171.094 201.605 170.678 199.898C169.845 196.431 168.846 191.614 167.812 186.273C166.777 180.932 165.819 176.115 165.058 172.636C164.683 170.947 164.374 169.555 164.148 168.521C164.047 168.074 163.97 167.7 163.904 167.397C163.867 167.267 163.847 167.133 163.845 166.998C163.911 167.117 163.959 167.245 163.987 167.379C164.071 167.676 164.172 168.039 164.303 168.479C164.57 169.436 164.927 170.858 165.343 172.571C166.176 176.032 167.181 180.855 168.21 186.196C169.239 191.536 170.202 196.354 170.964 199.833C171.338 201.522 171.647 202.913 171.873 203.948C171.975 204.394 172.052 204.763 172.117 205.066C172.154 205.196 172.174 205.33 172.177 205.465Z" fill="#263238"/>
<path d="M211.756 199.505C211.627 199.553 211.493 199.583 211.357 199.595L210.203 199.785L205.963 200.427C202.395 200.974 197.452 201.789 191.999 202.687C186.545 203.585 181.597 204.358 178.005 204.828C176.221 205.066 174.752 205.245 173.747 205.346L172.557 205.459C172.423 205.479 172.287 205.479 172.153 205.459C172.282 205.415 172.416 205.385 172.551 205.369L173.699 205.179L177.94 204.537C181.508 203.99 186.456 203.181 191.91 202.277C197.363 201.373 202.311 200.606 205.903 200.136C207.688 199.898 209.151 199.72 210.162 199.618L211.351 199.511C211.485 199.488 211.621 199.486 211.756 199.505Z" fill="#263238"/>
<path d="M66.9168 79.9485C66.0202 79.201 65.3373 78.2296 64.9372 77.1329C64.5372 76.0362 64.4343 74.8532 64.639 73.704C64.8648 72.5606 65.3155 71.4734 65.9648 70.5056C66.6141 69.5378 67.4491 68.7085 68.4214 68.066C69.3076 67.4713 70.4078 66.9717 71.4426 67.275C71.9169 67.4479 72.3365 67.744 72.6585 68.1329C72.9804 68.5217 73.193 68.9892 73.2744 69.4874C73.4248 70.4916 73.3057 71.5178 72.9294 72.461C71.7995 75.7201 70.1105 78.6699 66.9168 79.9664" fill="#026D4D"/>
<path d="M63.9016 85.5147C62.0694 83.8754 59.8728 82.6965 57.4939 82.0759C55.115 81.4553 52.6225 81.4109 50.223 81.9464C49.0335 82.2259 47.6359 82.8682 47.4397 84.0993C47.2434 85.3304 48.3377 86.383 49.4201 87.0134C51.7047 88.2818 54.3137 88.8457 56.9182 88.634C59.5227 88.4223 62.0063 87.4446 64.0562 85.824" fill="#026D4D"/>
<path d="M46.4704 59.74C47.4806 59.5068 48.5272 59.4783 49.5486 59.656C50.57 59.8337 51.5455 60.2141 52.4176 60.7748C54.1691 61.9174 55.6342 63.4476 56.6996 65.2471C58.8525 68.6489 59.6137 73.2283 59.7089 77.2546C55.2366 77.0761 51.4185 73.5613 49.5986 71.6523C46.7083 68.643 43.3184 61.4528 46.4347 59.7578" fill="#026D4D"/>
<path d="M70.6635 91.5991C70.2565 91.0596 69.8831 90.4955 69.5454 89.9101C68.3881 87.6412 67.542 85.2267 67.0297 82.7318C66.5253 80.2042 66.7186 77.587 67.5887 75.161C67.8606 74.4348 68.2222 73.7455 68.6652 73.1092C68.8157 72.8663 69.0021 72.6477 69.2183 72.4609C68.7014 73.3603 68.256 74.2989 67.8861 75.268C67.1318 77.6566 66.9886 80.1963 67.4698 82.6545C67.9885 85.1162 68.7866 87.5106 69.8487 89.7911" fill="#263238"/>
<path d="M70.7055 91.653L68.3742 88.6497C66.4176 86.1102 63.6997 82.6073 60.6428 78.7773C57.5859 74.9473 54.7848 71.5217 52.7508 69.0477L50.3719 66.0741C50.0587 65.7286 49.7761 65.3564 49.5274 64.9619C49.8783 65.2688 50.2044 65.6029 50.5028 65.9611C51.0975 66.6271 51.9718 67.5965 53.0244 68.8098C55.1238 71.2362 57.9725 74.638 61.0294 78.4681C64.0862 82.2981 66.7565 85.8367 68.6537 88.4297C69.6053 89.7262 70.3606 90.8085 70.872 91.5163" fill="#263238"/>
<path d="M53.0126 84.5815C53.2558 84.4612 53.5169 84.3808 53.7857 84.3436C54.0917 84.2594 54.4039 84.1997 54.7194 84.1652C55.1349 84.0965 55.5538 84.0509 55.9743 84.0284C57.072 83.9593 58.1738 84.0011 59.2631 84.1533C60.5942 84.3519 61.9002 84.6928 63.1585 85.1703C64.4112 85.671 65.6073 86.303 66.7269 87.0556C67.631 87.6793 68.4698 88.3926 69.2306 89.1847C69.5278 89.4838 69.8077 89.7995 70.0692 90.1303C70.2841 90.3706 70.4828 90.6249 70.6639 90.8915C70.9553 91.3257 70.9137 91.5279 70.8899 91.5457C70.3099 90.8015 69.6905 90.0888 69.0344 89.4107C68.2584 88.6683 67.4186 87.9957 66.5247 87.4005C65.4229 86.6918 64.2535 86.0941 63.0336 85.6164C61.8036 85.1498 60.5308 84.8052 59.2334 84.5875C58.1716 84.4183 57.0967 84.3467 56.0219 84.3734C54.1425 84.3912 53.0126 84.6648 53.0126 84.5815Z" fill="#263238"/>
<path d="M152.772 236.33L84.0813 236.009C80.1185 235.986 76.327 234.39 73.5394 231.574C70.7517 228.757 69.1958 224.949 69.2132 220.987L69.9388 48.7729C69.9561 44.8075 71.5467 41.0111 74.3613 38.2177C77.1759 35.4244 80.9841 33.8624 84.9496 33.8751L153.64 34.1903C157.603 34.217 161.393 35.8141 164.18 38.6313C166.968 41.4485 168.524 45.256 168.508 49.2189L167.794 221.427C167.777 225.395 166.185 229.193 163.368 231.988C160.551 234.783 156.74 236.345 152.772 236.33Z" fill="#2B3641"/>
<path d="M153.521 40.1373L140.2 40.0719C139.765 40.0796 139.337 40.1728 138.939 40.3462C138.54 40.5196 138.18 40.7697 137.879 41.0823C137.577 41.3949 137.34 41.7638 137.181 42.168C137.022 42.5722 136.944 43.0037 136.952 43.438V45.8526C136.96 46.2868 136.882 46.7184 136.724 47.1226C136.565 47.5268 136.328 47.8957 136.026 48.2083C135.724 48.5209 135.364 48.771 134.966 48.9444C134.568 49.1177 134.139 49.211 133.705 49.2187L107.746 49.0998C106.869 49.0748 106.038 48.7034 105.435 48.0668C104.832 47.4303 104.506 46.5805 104.528 45.7039V43.2893C104.55 42.4117 104.224 41.5611 103.619 40.9243C103.015 40.2876 102.182 39.9168 101.305 39.8935H96.6242L84.9677 39.8399C82.1873 39.8289 79.5163 40.9219 77.5414 42.879C75.5665 44.836 74.4493 47.497 74.4351 50.2773L73.7274 218.364C73.7163 221.142 74.8088 223.812 76.7647 225.786C78.7207 227.759 81.3801 228.876 84.1588 228.89L152.712 229.205C154.089 229.212 155.452 228.947 156.726 228.426C158 227.905 159.159 227.139 160.136 226.17C161.114 225.201 161.891 224.05 162.423 222.781C162.956 221.512 163.233 220.15 163.239 218.774L163.947 50.6817C163.957 49.3042 163.695 47.9381 163.176 46.662C162.657 45.3858 161.892 44.2247 160.923 43.2451C159.955 42.2654 158.802 41.4867 157.532 40.9534C156.262 40.4201 154.899 40.1427 153.521 40.1373Z" fill="#FAFAFA"/>
<path d="M114.745 213.089C114.789 213.379 114.743 213.675 114.613 213.937C114.483 214.2 114.276 214.417 114.02 214.558C113.763 214.7 113.47 214.759 113.178 214.728C112.887 214.698 112.612 214.579 112.39 214.387C112.169 214.195 112.011 213.94 111.939 213.656C111.867 213.373 111.883 213.073 111.986 212.799C112.089 212.525 112.274 212.289 112.515 212.123C112.756 211.956 113.043 211.868 113.336 211.87C113.683 211.848 114.026 211.964 114.289 212.192C114.553 212.42 114.716 212.742 114.745 213.089Z" fill="#455A64"/>
<path d="M119.128 213.112C119.171 213.402 119.123 213.698 118.993 213.96C118.862 214.222 118.655 214.438 118.398 214.578C118.141 214.718 117.847 214.777 117.556 214.746C117.265 214.714 116.991 214.594 116.77 214.402C116.549 214.21 116.392 213.955 116.32 213.671C116.249 213.387 116.266 213.088 116.369 212.815C116.472 212.541 116.657 212.305 116.898 212.139C117.14 211.973 117.426 211.886 117.719 211.887C118.067 211.866 118.41 211.982 118.674 212.211C118.938 212.441 119.101 212.764 119.128 213.112Z" fill="#455A64"/>
<path d="M123.511 213.131C123.555 213.421 123.509 213.717 123.379 213.98C123.25 214.242 123.042 214.459 122.786 214.601C122.529 214.742 122.236 214.801 121.944 214.771C121.653 214.74 121.378 214.621 121.156 214.429C120.935 214.238 120.777 213.983 120.705 213.699C120.633 213.415 120.649 213.116 120.752 212.841C120.855 212.567 121.04 212.331 121.281 212.165C121.522 211.999 121.809 211.91 122.102 211.912C122.45 211.889 122.793 212.004 123.057 212.232C123.321 212.461 123.484 212.784 123.511 213.131Z" fill="#455A64"/>
<path d="M94.953 121.168C96.0711 121.329 163.453 134.543 163.453 134.543V121.168H94.953Z" fill="#EBEBEB"/>
<path d="M73.7511 206.095C73.7511 206.095 147.057 195.723 146.414 196.044C145.772 196.366 73.7511 196.044 73.7511 196.044V206.095Z" fill="#EBEBEB"/>
<path d="M158.874 9.84229C158.957 9.84229 159.028 13.5474 159.028 18.1149C159.028 22.6823 158.957 26.3934 158.874 26.3934C158.79 26.3934 158.719 22.6883 158.719 18.1149C158.719 13.5415 158.79 9.84229 158.874 9.84229Z" fill="#263238"/>
<path d="M188.211 28.8921C188.247 28.9694 184.881 30.5276 180.7 32.3712C176.519 34.2149 173.099 35.6541 173.064 35.5708C173.028 35.4876 176.394 33.9354 180.575 32.0917C184.756 30.2481 188.175 28.8088 188.211 28.8921Z" fill="#263238"/>
<path d="M187.468 0C187.433 0.114209 187.38 0.222475 187.313 0.321151C187.176 0.547145 187.01 0.838557 186.802 1.19539C186.356 1.95663 185.695 3.04498 184.863 4.37716C183.198 7.05341 180.801 10.6812 178.083 14.6421C175.365 18.6029 172.951 22.2129 171.238 24.8534C170.399 26.144 169.715 27.2323 169.216 27.9817L168.657 28.8262C168.597 28.9298 168.525 29.0257 168.443 29.1116C168.487 29.0001 168.54 28.8926 168.603 28.7905C168.74 28.5645 168.906 28.2731 169.115 27.9163C169.555 27.155 170.221 26.0726 171.053 24.7345C172.719 22.0582 175.115 18.4304 177.827 14.4696C180.539 10.5087 182.966 6.92256 184.678 4.26416L186.701 1.12997L187.26 0.285466C187.321 0.184754 187.391 0.0892754 187.468 0Z" fill="#263238"/>
<path d="M228.593 70.0166H94.5128C93.8242 70.0166 93.1424 70.1523 92.5063 70.416C91.8703 70.6797 91.2924 71.0662 90.8058 71.5533C90.3192 72.0405 89.9334 72.6188 89.6704 73.2552C89.4075 73.8915 89.2725 74.5735 89.2733 75.2621V116.851C89.2725 117.54 89.4075 118.222 89.6704 118.858C89.9334 119.494 90.3192 120.073 90.8058 120.56C91.2924 121.047 91.8703 121.433 92.5063 121.697C93.1424 121.961 93.8242 122.096 94.5128 122.096H104.504C105.307 126.438 106.247 131.915 106.247 131.915L115.286 122.096H228.593C229.281 122.096 229.963 121.961 230.599 121.697C231.235 121.433 231.813 121.047 232.3 120.56C232.786 120.073 233.172 119.494 233.435 118.858C233.698 118.222 233.833 117.54 233.832 116.851V75.2621C233.833 74.5735 233.698 73.8915 233.435 73.2552C233.172 72.6188 232.786 72.0405 232.3 71.5533C231.813 71.0662 231.235 70.6797 230.599 70.416C229.963 70.1523 229.281 70.0166 228.593 70.0166Z" fill="#EB7910"/>
<path d="M173.272 92.5629C173.272 92.6462 157.315 92.7175 137.636 92.7175C117.957 92.7175 101.994 92.6462 101.994 92.5629C101.994 92.4797 117.951 92.4023 137.636 92.4023C157.321 92.4023 173.272 92.4916 173.272 92.5629Z" fill="#F5F5F5"/>
<path d="M173.272 86.1869C173.272 86.2701 157.315 86.3415 137.636 86.3415C117.957 86.3415 101.994 86.2701 101.994 86.1869C101.994 86.1036 117.951 86.0322 137.636 86.0322C157.321 86.0322 173.272 86.0976 173.272 86.1869Z" fill="#F5F5F5"/>
<path d="M173.272 98.9017C173.272 98.985 157.315 99.0563 137.636 99.0563C117.957 99.0563 101.994 98.985 101.994 98.9017C101.994 98.8184 117.951 98.7471 137.636 98.7471C157.321 98.7471 173.272 98.8125 173.272 98.9017Z" fill="#F5F5F5"/>
<path d="M148.68 105.451C148.68 105.534 138.231 105.605 125.337 105.605C112.444 105.605 101.994 105.534 101.994 105.451C101.994 105.367 112.444 105.296 125.337 105.296C138.231 105.296 148.68 105.361 148.68 105.451Z" fill="#F5F5F5"/>
<path d="M168.008 144.791H32.834C32.3514 144.79 31.8734 144.885 31.4275 145.069C30.9815 145.254 30.5764 145.525 30.2354 145.866C29.8945 146.208 29.6243 146.613 29.4406 147.059C29.2568 147.506 29.163 147.984 29.1646 148.466V192.476C29.1646 193.449 29.5512 194.382 30.2393 195.071C30.9275 195.759 31.8608 196.145 32.834 196.145H131.011L139.932 205.857C139.932 205.857 140.865 200.398 141.656 196.145H167.991C168.964 196.145 169.897 195.759 170.585 195.071C171.273 194.382 171.66 193.449 171.66 192.476V148.466C171.662 147.985 171.568 147.509 171.386 147.064C171.203 146.618 170.934 146.214 170.595 145.872C170.256 145.531 169.853 145.26 169.409 145.074C168.966 144.889 168.489 144.793 168.008 144.791Z" fill="#026D4D"/>
<path d="M162.709 167.497C162.709 167.581 146.753 167.652 127.068 167.652C107.382 167.652 91.4259 167.581 91.4259 167.497C91.4259 167.414 107.382 167.343 127.068 167.343C146.753 167.343 162.709 167.39 162.709 167.497Z" fill="#F5F5F5"/>
<path d="M162.709 161.086C162.709 161.17 146.753 161.241 127.068 161.241C107.382 161.241 91.4259 161.17 91.4259 161.086C91.4259 161.003 107.382 160.932 127.068 160.932C146.753 160.932 162.709 160.997 162.709 161.086Z" fill="#F5F5F5"/>
<path d="M162.709 173.801C162.709 173.884 146.753 173.956 127.068 173.956C107.382 173.956 91.4259 173.884 91.4259 173.801C91.4259 173.718 107.382 173.646 127.068 173.646C146.753 173.646 162.709 173.718 162.709 173.801Z" fill="#F5F5F5"/>
<path d="M138.118 180.35C138.118 180.439 127.668 180.505 114.775 180.505C101.881 180.505 91.4259 180.439 91.4259 180.35C91.4259 180.261 101.881 180.195 114.775 180.195C127.668 180.195 138.118 180.267 138.118 180.35Z" fill="#F5F5F5"/>
<path d="M194.884 52.3774C194.967 51.2831 193.992 49.7785 193.1 48.9102C192.583 48.4443 192.213 47.8375 192.037 47.1644C191.86 46.4913 191.885 45.7813 192.106 45.1218C192.469 43.7718 193.326 43.8729 193.665 43.076C193.829 42.4599 193.896 41.8215 193.861 41.1847C193.931 40.6468 194.112 40.1291 194.392 39.6641C194.671 39.1991 195.044 38.7967 195.485 38.482C195.927 38.1672 196.43 37.9469 196.96 37.8349C197.491 37.7228 198.04 37.7213 198.571 37.8305C198.866 36.7751 199.472 35.8328 200.31 35.1261C201.147 34.4194 202.178 33.9808 203.268 33.8673C204.358 33.7538 205.457 33.9706 206.423 34.4896C207.388 35.0087 208.175 35.8059 208.681 36.7778C209.297 36.465 209.98 36.3087 210.671 36.3226C211.361 36.3366 212.038 36.5204 212.64 36.8578C213.243 37.1953 213.753 37.676 214.126 38.2574C214.498 38.8388 214.722 39.5031 214.777 40.1915C215.401 39.7933 216.148 39.6342 216.881 39.7435C217.613 39.8528 218.281 40.2231 218.762 40.7863C219.213 41.3754 219.481 42.0844 219.532 42.8248C219.583 43.5652 219.414 44.3041 219.047 44.9493C218.67 45.5893 218.154 46.1357 217.536 46.5476C216.918 46.9596 216.215 47.2264 215.479 47.3282C214.004 47.5156 212.506 47.2436 211.191 46.5491C209.881 45.8593 208.692 44.9615 207.67 43.8907" fill="#263238"/>
<path d="M204.607 120.723C218.826 120.723 230.353 109.466 230.353 95.5785C230.353 81.6913 218.826 70.4336 204.607 70.4336C190.389 70.4336 178.862 81.6913 178.862 95.5785C178.862 109.466 190.389 120.723 204.607 120.723Z" fill="#E0E0E0"/>
<path d="M230.46 95.5962L227.612 88.293L217.4 94.71L226.499 108.74C226.499 108.74 230.199 103.934 230.46 95.5962Z" fill="#EB996E"/>
<path d="M202.288 79.7765C204.047 79.7868 205.743 79.12 207.024 77.9144C208.305 76.7087 209.073 75.0565 209.169 73.3C209.318 70.2729 209.449 67.3528 209.449 67.3528C209.449 67.3528 215.063 66.9484 215.58 61.4532C216.098 55.9579 216.175 43.2606 216.175 43.2606C213.129 41.6618 209.714 40.8983 206.277 41.0477C202.84 41.1971 199.504 42.254 196.609 44.1111L196.073 44.45L195.425 72.8778C195.419 73.7825 195.592 74.6795 195.934 75.517C196.276 76.3545 196.781 77.1159 197.419 77.7573C198.057 78.3987 198.816 78.9074 199.652 79.2539C200.487 79.6005 201.383 79.7781 202.288 79.7765Z" fill="#FFBE9D"/>
<path d="M205.488 51.7169C205.635 51.769 205.765 51.8636 205.859 51.9887C205.953 52.1139 206.009 52.2642 206.018 52.4207C206.028 52.5771 205.991 52.7329 205.912 52.8685C205.833 53.0041 205.716 53.1135 205.576 53.1829C205.435 53.2524 205.277 53.2788 205.122 53.259C204.966 53.2391 204.82 53.1739 204.701 53.0713C204.583 52.9688 204.497 52.8336 204.455 52.6826C204.413 52.5316 204.416 52.3715 204.465 52.2224C204.534 52.02 204.68 51.8532 204.872 51.7585C205.063 51.6638 205.285 51.6488 205.488 51.7169Z" fill="#263238"/>
<path d="M207.046 52.0026C206.951 52.0918 206.451 51.6398 205.666 51.5922C204.881 51.5446 204.322 51.9014 204.245 51.8003C204.168 51.6992 204.304 51.5862 204.554 51.4197C204.896 51.2039 205.299 51.1038 205.702 51.1343C206.103 51.1614 206.485 51.3179 206.79 51.5803C206.998 51.7825 207.076 51.9609 207.046 52.0026Z" fill="#263238"/>
<path d="M213.873 51.7169C214.021 51.769 214.15 51.8636 214.245 51.9887C214.339 52.1139 214.394 52.2642 214.404 52.4207C214.413 52.5771 214.376 52.7329 214.297 52.8685C214.219 53.0041 214.102 53.1135 213.961 53.1829C213.821 53.2524 213.663 53.2788 213.507 53.259C213.352 53.2391 213.206 53.1739 213.087 53.0713C212.968 52.9688 212.883 52.8336 212.841 52.6826C212.798 52.5316 212.802 52.3715 212.85 52.2224C212.919 52.02 213.066 51.8532 213.257 51.7585C213.449 51.6638 213.67 51.6488 213.873 51.7169Z" fill="#263238"/>
<path d="M215.515 52.0144C215.426 52.1096 214.92 51.6576 214.135 51.61C213.35 51.5624 212.791 51.9193 212.714 51.8182C212.636 51.7171 212.773 51.6041 213.029 51.4376C213.368 51.221 213.769 51.1208 214.171 51.1521C214.574 51.1805 214.957 51.3367 215.265 51.5981C215.491 51.8003 215.562 51.9788 215.515 52.0144Z" fill="#263238"/>
<path d="M209.746 57.9565C210.152 57.8312 210.576 57.7769 211.001 57.796C211.203 57.796 211.364 57.7603 211.387 57.6532C211.415 57.4499 211.382 57.2429 211.292 57.0585C211.138 56.5411 210.977 56.0178 210.811 55.4706C210.156 53.2107 209.722 51.3551 209.835 51.3075C209.948 51.26 210.579 53.0917 211.233 55.3398C211.387 55.8869 211.53 56.4162 211.679 56.9336C211.787 57.1984 211.801 57.492 211.72 57.7662C211.685 57.8404 211.632 57.9052 211.567 57.9557C211.502 58.0063 211.426 58.0412 211.346 58.0576C211.231 58.0718 211.115 58.0718 211.001 58.0576C210.58 58.0955 210.156 58.0613 209.746 57.9565Z" fill="#263238"/>
<path d="M209.425 67.2809C206.863 67.1224 204.404 66.2099 202.359 64.6582C202.359 64.6582 203.745 68.7558 209.324 68.7083L209.425 67.2809Z" fill="#EB996E"/>
<path d="M195.907 52.526C195.912 52.3102 195.833 52.1008 195.686 51.9421C195.54 51.7834 195.338 51.6879 195.122 51.6756C194.087 51.628 192.386 52.0027 192.148 54.8336C191.839 58.8777 195.788 57.944 195.806 57.8072C195.824 57.6704 195.889 54.1021 195.907 52.526Z" fill="#FFBE9D"/>
<path d="M194.961 56.2201C194.961 56.2201 194.884 56.2676 194.759 56.3093C194.675 56.3441 194.585 56.362 194.494 56.362C194.403 56.362 194.313 56.3441 194.23 56.3093C193.978 56.1247 193.781 55.8761 193.659 55.5895C193.537 55.3029 193.493 54.9887 193.534 54.6797C193.549 54.3322 193.642 53.9927 193.807 53.6865C193.858 53.5612 193.939 53.4502 194.043 53.3632C194.146 53.2761 194.27 53.2156 194.402 53.187C194.485 53.1704 194.572 53.184 194.646 53.2254C194.72 53.2668 194.777 53.3333 194.806 53.413C194.854 53.526 194.806 53.6092 194.842 53.6152C194.878 53.6211 194.937 53.5557 194.913 53.3832C194.899 53.2817 194.848 53.1889 194.771 53.1216C194.666 53.0285 194.53 52.9795 194.39 52.9848C194.218 53.0067 194.055 53.073 193.916 53.1773C193.777 53.2816 193.668 53.4202 193.599 53.5795C193.395 53.9136 193.28 54.2945 193.266 54.6857C193.22 55.0452 193.281 55.4104 193.442 55.7353C193.603 56.0602 193.856 56.3302 194.17 56.5115C194.278 56.5503 194.393 56.5651 194.507 56.5548C194.621 56.5445 194.731 56.5095 194.83 56.452C194.943 56.3212 194.973 56.2319 194.961 56.2201Z" fill="#EB996E"/>
<path d="M203.406 49.8436C203.608 50.1052 204.31 49.9863 205.226 49.9447C206.142 49.903 206.85 49.909 207.01 49.6235C207.171 49.3381 206.32 48.6541 205.143 48.7552C203.965 48.8563 203.18 49.5759 203.406 49.8436Z" fill="#263238"/>
<path d="M212.315 49.5765C212.422 49.9274 213.094 50.0345 213.838 50.0285C214.581 50.0226 215.247 49.8917 215.348 49.5349C215.449 49.1781 214.754 48.6963 213.82 48.7082C212.886 48.7201 212.202 49.2316 212.315 49.5765Z" fill="#263238"/>
<path d="M216.93 44.9856C216.93 44.9856 213.594 46.6033 209.258 44.4385C206.409 43.0171 203.097 42.3213 202.365 42.8922C201.634 43.4632 201.479 46.4011 198.66 47.2575C198.66 47.2575 198.85 52.8479 196.62 52.6516C194.39 52.4553 195.782 43.7962 195.782 43.7962L201.241 41.1318L207.188 40.0078L212.797 40.7988L217.138 41.9882L216.93 44.9856Z" fill="#263238"/>
<path d="M179.576 77.3847C185.41 71.3839 195.675 72.0322 195.675 72.0322L204.185 78.1281L209.008 72.508C212.428 72.9736 215.748 74.0004 218.833 75.547L219.16 75.6481V75.7135C222.895 77.7415 228.176 82.6063 233.214 87.3225L227.189 92.9129L220.516 98.8601C220.531 98.8983 220.531 98.9409 220.516 98.979C220.451 99.3418 221.444 107.484 222.467 113.669C219.563 116.533 216.005 118.647 212.1 119.827C208.196 121.007 204.062 121.219 200.058 120.443C197.328 119.961 196.008 119.301 193.48 118.658C191.659 118.176 190.031 117.143 188.819 115.701C187.606 114.258 186.869 112.477 186.706 110.6C186.254 105.414 185.909 98.9909 185.909 98.9909" fill="#026D4D"/>
<path d="M214.343 73.5615C214.492 73.87 214.615 74.1902 214.712 74.519C214.932 75.1137 215.223 76.0475 215.574 77.1715C216.276 79.4195 217.174 82.524 218.018 86.0507C218.863 89.5774 219.499 92.7473 219.898 95.0667C220.1 96.2561 220.249 97.172 220.338 97.8262C220.402 98.1618 220.439 98.5018 220.451 98.8432C220.346 98.5171 220.268 98.1829 220.219 97.844C220.082 97.1482 219.904 96.2264 219.684 95.1083C219.226 92.8008 218.56 89.619 217.715 86.1221C216.871 82.6251 216.014 79.479 215.372 77.2369L214.599 74.5547C214.491 74.23 214.405 73.8981 214.343 73.5615Z" fill="#263238"/>
<path d="M219.821 95.001C219.767 94.9356 222.313 92.7708 225.506 90.1719C228.7 87.5729 231.329 85.5152 231.382 85.5806C231.436 85.646 228.896 87.8108 225.702 90.4098C222.509 93.0087 219.88 95.0664 219.821 95.001Z" fill="#263238"/>
<path opacity="0.2" d="M187.277 85.6162L182.067 102.786L184.012 103.797L185.927 98.9439C185.927 98.9439 187.878 88.7385 187.277 85.6162Z" fill="black"/>
<g opacity="0.2">
<path d="M213.778 73.5736C216.591 75.0545 209.538 78.6228 206.356 78.5276L208.669 72.4258C208.669 72.4258 212.832 73.074 213.778 73.5736Z" fill="black"/>
</g>
<path d="M194.836 72.4246V67.875C194.836 67.875 203.716 70.1647 204.037 75.4755C204.037 75.4755 205.167 69.5997 209.746 69.3202L210.394 77.5809L205.042 82.2197H199.672L195.395 78.5265L194.836 72.7933" fill="#026D4D"/>
<path d="M206.041 100.966C206.01 100.642 206.01 100.315 206.041 99.9909C206.041 99.3605 206.041 98.4505 206.07 97.3265C206.07 95.0844 206.005 91.974 205.726 88.5663C205.446 85.1585 204.994 82.0778 204.619 79.8655C204.429 78.8009 204.268 77.9207 204.15 77.2487C204.072 76.9306 204.025 76.6061 204.007 76.2793C204.118 76.5873 204.206 76.9034 204.268 77.2249C204.423 77.8196 204.619 78.7236 204.833 79.8298C205.384 82.7109 205.781 85.6193 206.023 88.5425C206.263 91.4659 206.347 94.4001 206.273 97.3325C206.243 98.4565 206.201 99.3664 206.148 99.9968C206.135 100.322 206.099 100.646 206.041 100.966Z" fill="#263238"/>
<path d="M203.632 73.9488C203.454 73.9189 203.272 73.9353 203.103 73.9964C202.667 74.2421 202.346 74.6506 202.211 75.1323C201.477 76.7183 200.905 78.374 200.504 80.0745L200.456 80.2767L200.278 80.1696C199.748 79.8485 199.201 79.5036 198.654 79.1348C197.657 78.456 196.696 77.7255 195.776 76.9462C195.357 76.5966 195.022 76.1577 194.794 75.6616C194.616 75.2247 194.515 74.7597 194.497 74.2878C194.479 73.6201 194.545 72.9528 194.693 72.3015C194.729 72.0583 194.795 71.8205 194.89 71.5938C194.882 71.8372 194.856 72.0797 194.812 72.3193C194.711 72.9663 194.68 73.6222 194.717 74.2759C194.746 74.7175 194.852 75.1505 195.032 75.5546C195.25 76.0162 195.569 76.4228 195.966 76.744C196.805 77.4458 197.78 78.1714 198.827 78.885C199.374 79.2538 199.909 79.6047 200.438 79.9258L200.212 80.021C200.61 78.3127 201.209 76.6577 201.997 75.0907C202.118 74.8161 202.274 74.5583 202.46 74.3235C202.607 74.1421 202.803 74.0077 203.025 73.9369C203.477 73.7942 203.644 73.9429 203.632 73.9488Z" fill="#263238"/>
<path d="M209.746 69.3213C209.8 69.5534 209.828 69.7907 209.829 70.029L209.972 71.9678C210.037 72.7826 210.138 73.752 210.305 74.8165C210.448 75.3878 210.484 75.9806 210.412 76.565C210.187 77.1778 209.77 77.7015 209.223 78.0578C208.527 78.4893 207.874 78.9851 207.272 79.5386L207.034 79.8062V79.4494C206.926 77.8959 206.477 76.3852 205.72 75.0247C205.155 74.0077 204.691 73.4903 204.726 73.4606C204.762 73.4308 204.869 73.5676 205.077 73.8114C205.376 74.1621 205.647 74.536 205.886 74.9295C206.713 76.2966 207.208 77.8385 207.331 79.4316L207.07 79.3424C207.681 78.7655 208.348 78.2515 209.062 77.808C209.545 77.4905 209.916 77.0284 210.121 76.4877C210.183 75.9431 210.151 75.3918 210.025 74.8582C209.877 73.7817 209.799 72.8004 209.758 71.9797C209.716 71.159 209.71 70.4929 209.716 70.035C209.696 69.7968 209.706 69.557 209.746 69.3213Z" fill="#263238"/>
<path d="M238.334 70.4629C237.972 70.8851 224.888 88.3997 224.888 88.3997L226.731 89.4464L240.148 72.1995L238.334 70.4629Z" fill="#263238"/>
<path d="M185.803 84.2839C185.803 84.2839 199.558 104.088 200.391 104.475C202.021 105.242 220.838 88.9822 222.634 87.4241C222.883 87.091 223.395 86.3952 224.418 85.0095C224.418 85.0095 225.905 78.2178 227.487 78.7352C229.069 79.2526 226.618 82.1905 227.653 84.7716C228.688 87.3527 233.41 81.2033 233.6 80.6442L234.82 79.0504C234.82 79.0504 236.098 82.6722 236.009 84.1888C235.729 89.0357 231.144 94.7986 231.144 94.7986C231.144 94.7986 210.549 120.312 196.442 121.103C192.38 121.329 185.142 109.803 180.331 101.156C178.926 98.6312 178.493 95.6793 179.114 92.8572C179.736 90.0352 181.368 87.5378 183.703 85.8361L185.803 84.2839Z" fill="#FFBE9D"/>
<path d="M233.672 85.0449C233.935 84.4359 234.229 83.8404 234.552 83.2607C234.817 82.6505 235.115 82.0549 235.444 81.4766C235.069 82.7638 234.465 83.9727 233.66 85.0449H233.672Z" fill="#EB996E"/>
<path d="M183.477 74.6191C183.477 74.6191 168.71 79.8705 179.689 104.7L196.733 94.4115L194.307 88.607L183.477 74.6191Z" fill="#026D4D"/>
<path d="M182.347 75.0542C182.946 74.9985 183.55 75.0488 184.131 75.2029C184.812 75.3792 185.463 75.6537 186.064 76.0177C186.859 76.5127 187.583 77.1128 188.217 77.8018C189.827 79.6004 191.177 81.6164 192.225 83.7907C193.474 86.2053 194.64 88.9588 195.835 91.8432C196.192 92.7115 196.549 93.562 196.882 94.3708L196.936 94.5016L196.811 94.5671C191.88 97.2552 187.587 99.7709 184.553 101.656C183.031 102.596 181.824 103.369 180.985 103.904L180.034 104.499C179.925 104.575 179.809 104.64 179.689 104.695C179.783 104.604 179.887 104.522 179.998 104.451C180.206 104.297 180.515 104.071 180.926 103.791C181.734 103.196 182.93 102.423 184.435 101.46C187.444 99.5271 191.726 96.9697 196.662 94.2757L196.591 94.466C196.258 93.6571 195.901 92.8067 195.544 91.9384C194.354 89.054 193.165 86.3064 191.976 83.8977C190.947 81.747 189.63 79.7463 188.062 77.9505C187.449 77.2675 186.75 76.6677 185.981 76.1664C185.393 75.7972 184.756 75.511 184.09 75.3159C183.517 75.1794 182.934 75.0919 182.347 75.0542Z" fill="#263238"/>
<path d="M214.105 38.2412C214.143 38.3241 214.167 38.4124 214.177 38.5029C214.222 38.756 214.238 39.0134 214.224 39.2701C214.167 40.2359 213.766 41.1494 213.094 41.8452C212.584 42.3547 211.945 42.7169 211.246 42.8938C210.547 43.0707 209.813 43.0557 209.121 42.8503C208.284 42.6276 207.559 42.102 207.088 41.3754C206.838 40.9744 206.731 40.5007 206.784 40.0313C206.811 39.7866 206.891 39.5506 207.017 39.3393C207.143 39.1279 207.313 38.9461 207.516 38.8062C207.727 38.6731 207.968 38.5948 208.217 38.5781C208.467 38.5615 208.716 38.6072 208.943 38.711C209.384 38.8981 209.734 39.2503 209.918 39.6923C210.065 40.1046 210.106 40.5472 210.037 40.9794C209.969 41.4116 209.793 41.8197 209.526 42.1664C209.079 42.7444 208.443 43.1461 207.729 43.3006C207.016 43.4551 206.27 43.3525 205.625 43.0109C205.159 42.767 204.666 42.5793 204.156 42.4518C203.774 42.366 203.375 42.4077 203.02 42.5708C202.722 42.7314 202.439 42.9185 202.175 43.1298C202.175 43.1298 202.229 43.0525 202.348 42.9217C202.421 42.8399 202.503 42.7661 202.591 42.7016C202.708 42.6049 202.836 42.523 202.972 42.4578C203.34 42.2741 203.756 42.2117 204.162 42.2794C204.691 42.3938 205.205 42.5736 205.69 42.8146C205.965 42.9361 206.252 43.0298 206.546 43.0941C206.863 43.1533 207.187 43.1533 207.504 43.0941C208.216 42.9811 208.856 42.5949 209.288 42.0177C209.523 41.7104 209.678 41.3493 209.738 40.9671C209.798 40.585 209.762 40.1938 209.633 39.8291C209.562 39.6447 209.453 39.4773 209.313 39.3377C209.174 39.1981 209.006 39.0894 208.821 39.0188C208.637 38.9481 208.44 38.917 208.242 38.9275C208.045 38.938 207.852 38.9899 207.676 39.0798C207.512 39.1974 207.374 39.3481 207.272 39.5222C207.169 39.6964 207.105 39.8901 207.082 40.0908C207.039 40.4918 207.131 40.8956 207.343 41.2386C207.775 41.9028 208.435 42.3854 209.199 42.5946C209.844 42.7923 210.53 42.8144 211.187 42.6586C211.843 42.5029 212.446 42.1749 212.934 41.7084C213.588 41.057 213.997 40.2001 214.093 39.282C214.119 38.9356 214.123 38.588 214.105 38.2412Z" fill="#026D4D"/>
<path d="M210.888 60.6671C210.888 60.7028 210.709 60.7861 210.382 60.798C209.953 60.8037 209.53 60.7062 209.147 60.5137C208.764 60.3212 208.433 60.0392 208.182 59.6918C208.003 59.4182 207.95 59.2219 207.985 59.2041C208.377 59.5997 208.814 59.9471 209.288 60.2389C209.802 60.4454 210.339 60.5892 210.888 60.6671Z" fill="#263238"/>
<path d="M195.294 58.0685C195.324 58.0685 195.491 58.3302 195.294 58.7406C195.232 58.8564 195.148 58.9587 195.046 59.0414C194.944 59.1241 194.826 59.1856 194.7 59.2223C194.538 59.2585 194.369 59.2553 194.209 59.2129C194.049 59.1704 193.901 59.09 193.778 58.9784C193.644 58.8689 193.537 58.7297 193.466 58.5718C193.394 58.4139 193.361 58.2416 193.368 58.0685C193.378 57.807 193.474 57.5562 193.641 57.3548C193.927 57.0218 194.236 56.9861 194.236 57.0218C194.236 57.0575 194.022 57.1705 193.831 57.4857C193.71 57.6684 193.657 57.8887 193.683 58.1068C193.709 58.3248 193.813 58.5264 193.974 58.6751C194.062 58.7546 194.166 58.8135 194.279 58.8475C194.392 58.8815 194.512 58.8896 194.628 58.8714C194.825 58.8272 194.998 58.713 195.116 58.5502C195.306 58.3064 195.247 58.0685 195.294 58.0685Z" fill="#263238"/>
<path d="M215.086 40.2275C215.282 40.5584 215.381 40.9375 215.372 41.3218C215.419 42.2611 215.101 43.1821 214.485 43.8925C213.869 44.6029 213.002 45.0477 212.065 45.134C211.686 45.1989 211.296 45.1535 210.941 45.0032C210.941 44.9496 211.375 45.0032 212.036 44.9139C212.892 44.7822 213.675 44.3518 214.245 43.6989C214.816 43.0459 215.137 42.2124 215.152 41.3456C215.17 40.6676 215.033 40.2573 215.086 40.2275Z" fill="#026D4D"/>
<path d="M194.973 90.0052C195.009 90.0825 191.09 92.0987 186.213 94.5073C181.336 96.9159 177.357 98.8131 177.292 98.7358C177.227 98.6584 181.17 96.6423 186.046 94.2278C190.923 91.8132 194.937 89.9279 194.973 90.0052Z" fill="#E0E0E0"/>
<path d="M191.399 83.2611C191.44 83.3325 187.949 85.2892 183.602 87.6205C179.254 89.9518 175.698 91.7835 175.662 91.7062C175.627 91.6289 179.112 89.6782 183.459 87.3469C187.806 85.0156 191.357 83.1838 191.399 83.2611Z" fill="#E0E0E0"/>
<path d="M187.943 77.8076C187.388 78.1923 186.806 78.5361 186.201 78.8365L181.931 81.2154L177.684 83.6418C177.113 84.0052 176.517 84.3272 175.9 84.6053C176.426 84.1757 176.987 83.7917 177.577 83.4575C178.636 82.7854 180.117 81.8934 181.782 80.9477C183.447 80.0021 184.982 79.2052 186.106 78.6462C186.693 78.3146 187.308 78.0341 187.943 77.8076Z" fill="#E0E0E0"/>
<path d="M201.01 76.5047C200.607 76.486 200.214 76.3805 199.856 76.1955C198.984 75.8048 198.181 75.2767 197.477 74.6314C196.771 73.9869 196.123 73.2825 195.538 72.526C195.271 72.2348 195.045 71.9087 194.866 71.5566C194.902 71.5566 195.211 71.8481 195.705 72.3893C196.198 72.9305 196.864 73.6679 197.685 74.3994C198.376 75.0273 199.146 75.563 199.975 75.9933C200.587 76.3323 201.022 76.469 201.01 76.5047Z" fill="#E0E0E0"/>
<path d="M209.681 73.2939C209.484 74.0109 209.05 74.6399 208.449 75.0781C207.917 75.598 207.222 75.9193 206.481 75.988C207.097 75.6402 207.693 75.2569 208.265 74.8402C208.762 74.3488 209.235 73.8327 209.681 73.2939Z" fill="#E0E0E0"/>
<path d="M225.149 82.2446C225.041 82.278 224.929 82.298 224.816 82.3041L223.859 82.4231C223.026 82.5182 221.819 82.6312 220.332 82.7502C217.358 82.988 213.195 83.22 208.657 83.3865C204.12 83.553 199.963 83.6066 196.965 83.5828C195.472 83.5828 194.259 83.5411 193.427 83.5114L192.463 83.4638C192.351 83.4639 192.239 83.4499 192.13 83.4222C192.241 83.408 192.353 83.408 192.463 83.4222H193.427L196.965 83.3925C199.939 83.3627 204.102 83.2676 208.646 83.107C213.189 82.9464 217.328 82.7383 220.314 82.5598L223.847 82.3339L224.81 82.2744C224.921 82.2491 225.035 82.2391 225.149 82.2446Z" fill="#E0E0E0"/>
<path d="M220.451 89.2975C220.13 89.3709 219.804 89.4226 219.476 89.4521C218.839 89.5295 217.923 89.6246 216.793 89.7317C214.528 89.9398 211.393 90.1539 207.926 90.2966C204.459 90.4394 201.313 90.4691 199.005 90.4453C197.869 90.4453 196.948 90.4096 196.311 90.3858C195.981 90.3885 195.65 90.3626 195.324 90.3085C195.652 90.2692 195.981 90.2533 196.311 90.261L199.005 90.2253C201.277 90.2253 204.417 90.1242 207.879 89.9874C211.34 89.8506 214.48 89.6662 216.746 89.5116L219.434 89.3272C219.771 89.2855 220.112 89.2755 220.451 89.2975Z" fill="#E0E0E0"/>
<path d="M209.787 97.9927C209.141 98.1422 208.482 98.2357 207.819 98.2722C206.594 98.3971 204.905 98.5339 203.031 98.629C201.158 98.7242 199.463 98.7539 198.232 98.748C197.569 98.7792 196.904 98.7533 196.246 98.6707C196.901 98.5706 197.563 98.5229 198.226 98.5279L203.014 98.3198L207.771 98.0522C208.441 97.9863 209.115 97.9664 209.787 97.9927Z" fill="#E0E0E0"/>
<path d="M196.162 77.3552C196.162 77.4444 194.336 77.4622 192.088 77.5574C189.84 77.6525 188.026 77.7774 188.015 77.6882C190.703 77.2129 193.444 77.1009 196.162 77.3552Z" fill="#E0E0E0"/>
<path d="M221.248 77.0344C219.492 77.179 217.728 77.2227 215.967 77.1652C214.203 77.2117 212.437 77.1541 210.68 76.9928C212.438 76.8443 214.203 76.7986 215.967 76.856C217.729 76.8091 219.493 76.8687 221.248 77.0344Z" fill="#E0E0E0"/>
<path d="M222.164 113.223C221.997 113.347 221.815 113.451 221.623 113.532C221.266 113.717 220.737 113.96 220.076 114.24C218.342 114.954 216.552 115.525 214.724 115.947C212.897 116.364 211.039 116.632 209.169 116.75C208.456 116.791 207.873 116.803 207.468 116.791C207.269 116.801 207.07 116.787 206.874 116.75C206.874 116.702 207.754 116.666 209.175 116.53C211.026 116.352 212.863 116.056 214.676 115.644C216.494 115.226 218.283 114.688 220.029 114.032C221.319 113.532 222.146 113.175 222.164 113.223Z" fill="#E0E0E0"/>
<path d="M61.5114 194.171C75.7303 194.171 87.2569 183.174 87.2569 169.609C87.2569 156.044 75.7303 145.047 61.5114 145.047C47.2925 145.047 35.7659 156.044 35.7659 169.609C35.7659 183.174 47.2925 194.171 61.5114 194.171Z" fill="#E0E0E0"/>
<path d="M56.266 110.404C52.1862 110.618 50.5805 114.877 50.0928 115.828C49.674 116.814 49.4518 117.873 49.4386 118.945C49.4262 120.017 49.157 121.072 48.6536 122.019C47.7556 123.453 45.8644 124.196 45.3529 125.808C44.7582 127.633 46.2628 129.584 45.8644 131.457C45.6503 132.463 44.9187 133.289 44.6749 134.282C44.4499 135.344 44.6484 136.452 45.228 137.369C46.5661 139.677 49.3494 140.83 52.0138 140.937C54.6781 141.044 57.283 140.236 59.8344 139.451" fill="#263238"/>
<path d="M74.2382 115.686C74.0816 116.136 74.0543 116.622 74.1594 117.088C74.2645 117.553 74.4978 117.98 74.8329 118.32C75.518 118.977 76.2582 119.574 77.0453 120.104C77.4385 120.375 77.7744 120.721 78.0336 121.122C78.2929 121.523 78.4703 121.972 78.5559 122.442C78.6332 123.31 78.1931 124.178 78.3121 125.041C78.6213 127.271 82.1718 127.937 82.3562 130.173C82.487 131.666 80.9526 133.04 81.3808 134.473C81.6125 135.011 81.9123 135.516 82.2729 135.977C83.2839 137.655 82.6 139.962 81.137 141.259C79.674 142.555 77.6519 143.013 75.7012 143.102C74.0598 143.174 72.1924 142.906 71.2289 141.58C70.3428 140.361 70.5272 138.707 70.6996 137.214C71.5263 130.244 71.3836 123.203 71.2468 116.185" fill="#263238"/>
<path d="M57.3423 147.937C57.3721 144.274 57.3423 140.42 57.3423 140.42C57.3423 140.42 52.6381 139.581 51.7282 133.42C50.8658 127.538 52.3229 114.894 52.3229 114.894C59.1443 112.2 66.8282 113.241 71.6038 118.73L70.8544 148.466C70.7712 151.916 67.7321 154.592 64.0389 154.473C60.31 154.348 57.3126 151.44 57.3423 147.937Z" fill="#FFBE9D"/>
<path d="M53.6076 124.6C53.6027 124.806 53.6782 125.006 53.8182 125.157C53.9581 125.308 54.1514 125.398 54.357 125.409C54.4575 125.418 54.5588 125.407 54.6549 125.376C54.7511 125.346 54.8402 125.296 54.9172 125.231C54.9941 125.166 55.0573 125.086 55.103 124.996C55.1488 124.906 55.1762 124.808 55.1837 124.707C55.187 124.501 55.1102 124.301 54.9693 124.15C54.8284 124 54.6345 123.909 54.4284 123.898C54.3282 123.89 54.2272 123.901 54.1314 123.931C54.0356 123.962 53.9468 124.011 53.8704 124.077C53.7939 124.142 53.7313 124.222 53.6862 124.312C53.6411 124.402 53.6144 124.5 53.6076 124.6Z" fill="#263238"/>
<path d="M52.3407 123.994C52.4358 124.095 53.0365 123.661 53.887 123.672C55.4868 123.904 55.457 124.148 55.4451 124.011C55.4927 123.97 55.3975 123.779 55.124 123.583C54.7619 123.322 54.3274 123.181 53.881 123.179C53.4383 123.174 53.0054 123.31 52.644 123.565C52.3823 123.762 52.2931 123.946 52.3407 123.994Z" fill="#263238"/>
<path d="M62.3025 124.856C62.2977 125.061 62.3734 125.26 62.5135 125.41C62.6535 125.56 62.8468 125.649 63.0519 125.659C63.1522 125.668 63.2535 125.658 63.3497 125.627C63.4459 125.597 63.5349 125.548 63.6115 125.482C63.6882 125.417 63.7508 125.336 63.7957 125.246C63.8405 125.156 63.8667 125.057 63.8726 124.957C63.8775 124.751 63.802 124.551 63.6621 124.4C63.5222 124.249 63.3289 124.159 63.1233 124.148C63.0228 124.14 62.9217 124.152 62.8258 124.183C62.73 124.214 62.6413 124.264 62.5649 124.33C62.4886 124.396 62.4261 124.476 62.381 124.567C62.336 124.657 62.3093 124.755 62.3025 124.856Z" fill="#263238"/>
<path d="M61.1961 124.285C61.2912 124.392 61.8979 123.952 62.7424 123.964C63.5869 123.975 64.2113 124.41 64.3065 124.309C64.4016 124.207 64.253 124.077 63.9853 123.874C63.6211 123.614 63.1842 123.474 62.7364 123.476C62.2941 123.468 61.8608 123.601 61.4994 123.857C61.2377 124.083 61.1485 124.237 61.1961 124.285Z" fill="#263238"/>
<path d="M58.0385 130.38C57.5949 130.229 57.1327 130.139 56.6647 130.113C56.4506 130.113 56.2424 130.041 56.2067 129.893C56.1942 129.668 56.248 129.445 56.3614 129.25L57.0215 127.609C57.6297 126.215 58.1288 124.775 58.5142 123.303C58.4191 123.268 57.5984 125.141 56.6766 127.466C56.4565 128.061 56.2484 128.596 56.0462 129.12C55.9042 129.379 55.8599 129.681 55.9213 129.97C55.9512 130.048 55.9992 130.118 56.0612 130.173C56.1232 130.229 56.1975 130.27 56.2781 130.291C56.3955 130.328 56.5179 130.346 56.6409 130.345C57.1034 130.415 57.573 130.427 58.0385 130.38Z" fill="#263238"/>
<path d="M57.3363 140.42C60.233 140.498 63.0946 139.771 65.603 138.32C65.603 138.32 63.5571 142.525 57.4018 141.889L57.3363 140.42Z" fill="#EB996E"/>
<path d="M58.3652 132.409C58.5298 132.208 58.7427 132.052 58.9839 131.955C59.2252 131.859 59.487 131.825 59.7449 131.856C59.9409 131.873 60.1312 131.931 60.3033 132.027C60.4754 132.122 60.6256 132.252 60.7441 132.409C60.8557 132.553 60.9206 132.728 60.9302 132.909C60.9398 133.091 60.8935 133.272 60.7976 133.426C60.6581 133.576 60.4777 133.681 60.2788 133.728C60.08 133.776 59.8716 133.764 59.6795 133.694C59.2805 133.547 58.9146 133.323 58.6031 133.034C58.5089 132.964 58.4283 132.877 58.3652 132.778C58.3335 132.732 58.3165 132.677 58.3165 132.62C58.3165 132.564 58.3335 132.509 58.3652 132.463" fill="#EB996E"/>
<path d="M60.5359 130.994C60.3932 130.994 60.3813 131.91 59.5843 132.552C58.7874 133.195 57.8002 133.088 57.8002 133.213C57.8002 133.337 58.0202 133.397 58.4306 133.409C58.9721 133.428 59.5022 133.25 59.9233 132.909C60.3259 132.586 60.588 132.119 60.6548 131.607C60.6965 131.22 60.5954 130.988 60.5359 130.994Z" fill="#263238"/>
<path d="M68.9276 114.341C66.6795 117.553 60.7145 120.853 56.4384 121.62C56.9321 120.966 59.5548 119.349 60.0543 118.694C58.1215 120.134 55.3501 122.072 52.7868 122.197C52.4844 122.242 52.1757 122.194 51.9007 122.061C51.7568 121.945 51.6416 121.799 51.5642 121.631C51.4868 121.464 51.4493 121.281 51.4547 121.097C51.3088 119.237 51.3686 117.366 51.6331 115.519C51.8365 113.958 52.6304 112.534 53.8514 111.54C55.4988 110.267 57.8479 109.958 60.0662 109.904C61.9229 109.784 63.785 110.035 65.5436 110.642C67.2445 111.308 68.7016 112.634 68.9514 114.21" fill="#263238"/>
<path d="M75.3865 128.728C75.6682 127.37 75.8668 125.995 75.9812 124.613C76.1656 121.437 75.2497 109.744 64.3009 110.66L63.8548 113.997C63.8548 113.997 62.1658 125.409 69.249 125.493C69.725 128.041 70.9703 130.382 72.8173 132.201C72.8173 132.201 74.6728 132.148 75.3389 128.728" fill="#263238"/>
<path d="M69.2668 125.493C69.9283 125.363 70.6126 125.414 71.2472 125.642C71.8828 125.881 72.3979 126.362 72.6805 126.98C72.9273 127.611 72.9273 128.312 72.6805 128.942C72.4258 129.567 72.0358 130.128 71.5387 130.584C71.211 130.936 70.8029 131.203 70.3492 131.363C70.1204 131.442 69.8755 131.463 69.6367 131.423C69.3979 131.384 69.1726 131.285 68.9814 131.137" fill="#FFBE9D"/>
<path d="M69.5818 129.489C69.5045 129.489 69.7899 129.911 70.3906 129.757C70.5523 129.706 70.702 129.622 70.8307 129.512C70.9595 129.402 71.0646 129.266 71.1399 129.114C71.3261 128.78 71.4434 128.412 71.4849 128.032C71.5418 127.616 71.4468 127.194 71.2173 126.843C71.1245 126.696 70.9988 126.573 70.8502 126.483C70.7015 126.393 70.534 126.339 70.3609 126.325C69.7661 126.325 69.5461 126.73 69.6115 126.741C69.6769 126.753 69.9029 126.575 70.3073 126.676C70.5548 126.772 70.7591 126.955 70.8826 127.19C71.0061 127.425 71.0405 127.696 70.9794 127.955C70.9021 128.633 70.6344 129.251 70.2716 129.4C69.9089 129.549 69.6234 129.436 69.5818 129.489Z" fill="#EB996E"/>
<path d="M70.4622 113.14C71.311 113.622 72.3146 113.752 73.2583 113.503C74.2019 113.254 75.0107 112.645 75.5114 111.808C75.8579 111.282 75.9819 110.64 75.8563 110.024C75.7158 109.621 75.4722 109.261 75.1498 108.982C74.8274 108.702 74.4374 108.512 74.0186 108.43C73.42 108.273 72.7921 108.267 72.1904 108.411C71.5888 108.555 71.032 108.846 70.5692 109.256C70.1166 109.68 69.7927 110.223 69.6349 110.823C69.4771 111.422 69.4918 112.055 69.6771 112.646C69.8873 113.228 70.2734 113.729 70.7819 114.081C71.2903 114.433 71.8957 114.617 72.5139 114.609" fill="#263238"/>
<path d="M71.4493 130.887C70.8227 131.303 70.2512 131.796 69.7484 132.356C69.2452 132.924 68.9829 133.667 69.0169 134.425C69.109 134.835 69.1549 135.254 69.1537 135.674C68.9728 136.224 68.6791 136.731 68.2913 137.161C67.9321 137.819 67.7921 138.575 67.8915 139.318C67.991 140.061 68.3248 140.754 68.8444 141.294C69.9241 142.356 71.3804 142.946 72.8945 142.936C73.7655 143.01 74.6374 142.802 75.3804 142.341C76.4033 141.627 76.7959 140.283 76.8256 139.028" fill="#263238"/>
<path d="M72.1987 115.597C72.0473 116.002 71.8303 116.38 71.5564 116.715C70.9518 117.569 70.2425 118.344 69.4451 119.022C68.6537 119.708 67.7808 120.293 66.8462 120.765C66.4763 120.982 66.075 121.14 65.6567 121.235C66.9204 120.516 68.1255 119.699 69.2607 118.79C70.3218 117.804 71.3041 116.736 72.1987 115.597Z" fill="#455A64"/>
<path d="M73.3345 115.531C73.3513 116.04 73.285 116.548 73.1382 117.036C72.845 118.227 72.3759 119.367 71.7465 120.42C71.113 121.47 70.3251 122.418 69.4093 123.233C69.0467 123.591 68.6291 123.888 68.1723 124.113C69.4438 122.984 70.5561 121.688 71.4789 120.259C72.3113 118.776 72.9357 117.185 73.3345 115.531Z" fill="#455A64"/>
<path d="M49.5634 120.515C49.6526 120.515 49.7716 121.538 50.1582 122.757C50.5447 123.976 50.9551 124.91 50.8718 124.951C49.9515 123.66 49.4908 122.098 49.5634 120.515Z" fill="#455A64"/>
<path d="M75.7968 141.532C76.0662 141.709 76.3786 141.81 76.7007 141.823C77.0749 141.818 77.4392 141.702 77.7474 141.49C78.1428 141.199 78.4228 140.778 78.5384 140.301C78.6809 139.715 78.6809 139.103 78.5384 138.517C78.4135 137.868 78.1638 137.202 77.9437 136.471C77.6744 135.709 77.5829 134.895 77.6761 134.092C77.8129 133.224 78.3779 132.516 78.6514 131.713C78.7808 131.33 78.8322 130.924 78.8025 130.521C78.7729 130.118 78.6629 129.724 78.479 129.364C78.1405 128.681 77.5594 128.149 76.8494 127.871C76.5007 127.741 76.1593 127.592 75.8265 127.425C75.4944 127.261 75.2129 127.01 75.0117 126.699C74.7165 126.122 74.5888 125.473 74.643 124.826C74.6829 124.322 74.6629 123.815 74.5835 123.316C74.5181 122.944 74.3652 122.593 74.1375 122.293C73.9325 122.042 73.6502 121.866 73.3346 121.793C73.4206 121.772 73.5103 121.772 73.5963 121.793C73.8429 121.857 74.0646 121.994 74.2326 122.186C74.485 122.496 74.664 122.86 74.756 123.25C74.8575 123.761 74.8935 124.282 74.8631 124.802C74.8212 125.402 74.9489 126.002 75.2318 126.533C75.5648 127.08 76.2547 127.306 76.9565 127.586C77.7331 127.882 78.3699 128.459 78.7406 129.203C78.9445 129.599 79.0673 130.032 79.102 130.476C79.1368 130.921 79.0826 131.367 78.9428 131.79C78.6336 132.641 78.0864 133.319 77.9675 134.098C77.8769 134.862 77.9603 135.636 78.2113 136.364C78.4195 137.077 78.6633 137.761 78.8061 138.433C78.9388 139.063 78.9204 139.715 78.7525 140.336C78.6111 140.859 78.2886 141.314 77.8426 141.621C77.5025 141.843 77.1005 141.952 76.6948 141.93C76.4403 141.919 76.1937 141.839 75.9811 141.698C75.9086 141.656 75.8458 141.6 75.7968 141.532Z" fill="#455A64"/>
<path d="M71.5026 141.11C71.5026 141.11 71.5799 141.301 71.8653 141.437C72.0653 141.52 72.2873 141.534 72.4962 141.477C72.7051 141.42 72.8891 141.295 73.0191 141.122C73.1725 140.832 73.2447 140.506 73.2279 140.178C73.2112 139.851 73.1061 139.534 72.9239 139.261C72.5849 138.589 71.9129 137.929 71.7345 136.947C71.6858 136.708 71.6899 136.461 71.7464 136.224C71.8029 135.987 71.9105 135.765 72.0616 135.573C72.353 135.217 72.6979 134.979 72.918 134.687C73.2988 134.131 73.4482 133.449 73.3343 132.784C73.2608 132.325 73.1473 131.873 72.9953 131.434C72.9261 131.275 72.8781 131.107 72.8526 130.935C72.8526 130.935 72.9656 131.089 73.1024 131.393C73.31 131.825 73.4599 132.283 73.5484 132.754C73.6245 133.113 73.6285 133.484 73.5601 133.844C73.4917 134.205 73.3523 134.548 73.1499 134.854C72.8942 135.199 72.5552 135.449 72.3054 135.764C72.1805 135.922 72.0918 136.106 72.0456 136.302C71.9994 136.498 71.9967 136.702 72.0378 136.9C72.1805 137.75 72.8109 138.398 73.1737 139.13C73.3693 139.449 73.4727 139.817 73.4727 140.191C73.4727 140.566 73.3693 140.933 73.1737 141.253C73.0835 141.37 72.9697 141.468 72.8396 141.538C72.7095 141.609 72.566 141.652 72.4184 141.663C72.2011 141.689 71.9811 141.648 71.788 141.544C71.4907 141.33 71.4907 141.104 71.5026 141.11Z" fill="#455A64"/>
<path d="M48.1894 139.545C48.0071 139.406 47.8433 139.244 47.7017 139.064C47.2773 138.6 46.9281 138.072 46.6669 137.5C46.4908 137.091 46.4055 136.648 46.4171 136.203C46.4199 135.676 46.6047 135.165 46.9405 134.758C47.3092 134.336 47.8445 134.11 48.1656 133.711C48.3213 133.493 48.4242 133.241 48.4665 132.976C48.5088 132.71 48.4893 132.439 48.4095 132.183C48.2643 131.633 48.0463 131.105 47.7612 130.613C47.4822 130.126 47.2815 129.598 47.1665 129.049C47.0701 128.529 47.1788 127.992 47.4698 127.55C47.7295 127.197 48.0333 126.88 48.3738 126.604C48.8657 126.248 49.2238 125.737 49.3907 125.153C49.4311 124.937 49.4311 124.715 49.3907 124.499C49.3907 124.499 49.4383 124.547 49.48 124.654C49.5396 124.819 49.558 124.997 49.5335 125.171C49.4048 125.803 49.0547 126.368 48.5462 126.765C48.2325 127.039 47.9512 127.349 47.7077 127.687C47.4612 128.078 47.3759 128.549 47.4698 129.001C47.5921 129.518 47.7927 130.013 48.0645 130.47C48.3648 130.984 48.5948 131.536 48.7484 132.111C48.8364 132.413 48.8542 132.73 48.8006 133.039C48.747 133.349 48.6234 133.642 48.4392 133.896C48.0348 134.371 47.4995 134.58 47.1903 134.942C46.8892 135.295 46.719 135.74 46.7085 136.203C46.6903 136.609 46.7572 137.014 46.9048 137.393C47.1384 137.957 47.4507 138.486 47.8326 138.963C47.9701 139.145 48.0896 139.34 48.1894 139.545Z" fill="#455A64"/>
<path d="M72.9896 113.913C72.5647 113.337 72.0781 112.808 71.5385 112.337C70.9392 111.948 70.2991 111.624 69.6294 111.374C70.3865 111.386 71.1201 111.639 71.7241 112.095C72.3282 112.552 72.7714 113.188 72.9896 113.913Z" fill="#FF725E"/>
<path d="M73.8279 108.222C73.8636 108.222 74.0598 108.436 74.2204 108.894C74.426 109.503 74.4447 110.16 74.2741 110.78C74.1035 111.4 73.7513 111.955 73.2629 112.373C72.8823 112.688 72.5968 112.783 72.579 112.753C72.5611 112.724 72.799 112.551 73.1083 112.218C73.52 111.793 73.8185 111.271 73.9764 110.701C74.1343 110.13 74.1467 109.53 74.0123 108.953C73.9297 108.715 73.868 108.47 73.8279 108.222Z" fill="#455A64"/>
<path opacity="0.3" d="M43.6462 181.378C43.6462 181.378 58.425 195.413 67.2091 192.868C75.9931 190.323 78.5861 183.739 78.5861 183.739L78.8002 181.36L77.92 180.765L44.0922 178.065L43.6462 181.378Z" fill="black"/>
<path d="M34.9094 168.234L37.7581 160.955L47.9695 167.372L38.8702 181.402C38.8702 181.402 35.171 176.572 34.9094 168.234Z" fill="#EB996E"/>
<path d="M46.4292 148.05C51.187 145.564 57.3364 144.85 57.3364 144.85C59.1206 148.418 64.7526 148.876 68.1603 146.438L71.0388 144.493C71.436 144.487 71.8332 144.505 72.2282 144.547C75.511 144.855 78.6071 146.212 81.058 148.418C83.5089 150.624 85.1841 153.56 85.8355 156.792C86.4031 159.328 86.6449 161.926 86.5551 164.524C86.1804 171.024 79.4541 171.613 79.4541 171.613C79.4541 171.613 79.1092 178.03 78.6512 183.222C78.5527 185.03 77.9494 186.775 76.9098 188.258C75.8702 189.741 74.4359 190.904 72.7694 191.613C70.4138 192.791 67.88 193.573 65.27 193.927C61.1956 194.564 57.0269 194.193 53.1294 192.845C49.2318 191.497 45.7244 189.214 42.9144 186.195C43.9373 180.01 44.9127 171.999 44.8413 171.636C44.8297 171.598 44.8297 171.556 44.8413 171.517L38.1745 165.6L34.392 162.424C34.392 162.424 42.7181 150.113 46.4173 148.091" fill="#EB7910"/>
<path d="M54.6961 152.035C54.193 151.749 53.6272 151.592 53.0487 151.577C52.4305 151.576 51.8304 151.786 51.3478 152.172C51.0736 152.424 50.8191 152.696 50.5866 152.987C50.3212 153.342 49.9408 153.594 49.5101 153.7C49.0645 153.756 48.6145 153.637 48.2553 153.367C47.9103 153.147 47.6189 152.909 47.3156 152.737C47.0548 152.583 46.7631 152.49 46.4617 152.463C46.1604 152.436 45.8568 152.477 45.5731 152.582C45.1756 152.717 44.8235 152.96 44.5561 153.284C44.3717 153.516 44.3063 153.671 44.2766 153.659C44.2989 153.497 44.3624 153.343 44.4609 153.213C44.7101 152.833 45.0721 152.542 45.4957 152.38C45.8091 152.246 46.1492 152.186 46.4895 152.204C46.8299 152.223 47.1614 152.32 47.4583 152.487C47.7914 152.665 48.0887 152.909 48.4158 153.111C48.7137 153.336 49.086 153.438 49.4566 153.397C49.8172 153.304 50.137 153.095 50.3665 152.802C50.6078 152.5 50.8766 152.222 51.1694 151.97C51.7058 151.555 52.3717 151.345 53.0487 151.375C53.4961 151.391 53.933 151.515 54.3214 151.738C54.595 151.904 54.708 152.035 54.6961 152.035Z" fill="#FAFAFA"/>
<path d="M61.4697 160.956C61.0855 160.522 60.599 160.19 60.0543 159.992C59.476 159.794 58.8484 159.794 58.2701 159.992C57.9332 160.146 57.6073 160.323 57.2948 160.522C56.9288 160.772 56.488 160.89 56.0459 160.855C55.605 160.765 55.2166 160.507 54.9635 160.135C54.7077 159.82 54.5055 159.499 54.2736 159.237C54.0755 159.009 53.8293 158.827 53.5526 158.706C53.276 158.585 52.9758 158.526 52.6738 158.535C52.2541 158.539 51.8432 158.656 51.4843 158.874C51.2346 159.035 51.1216 159.16 51.0978 159.142C51.074 159.124 51.1751 158.975 51.4189 158.773C51.8738 158.431 52.4391 158.27 53.0058 158.321C53.5725 158.371 54.1004 158.63 54.4877 159.047C54.7434 159.326 54.9516 159.641 55.1954 159.945C55.4097 160.246 55.7272 160.457 56.0875 160.539C56.4626 160.559 56.834 160.457 57.1461 160.248C57.4718 160.038 57.8162 159.859 58.175 159.713C58.8182 159.493 59.5191 159.512 60.1494 159.766C60.5712 159.92 60.9474 160.178 61.2437 160.516C61.4221 160.759 61.4816 160.92 61.4697 160.956Z" fill="#FAFAFA"/>
<path d="M76.5222 147.932C75.9699 147.76 75.3841 147.725 74.8154 147.83C74.2099 147.959 73.6665 148.291 73.275 148.77C73.0642 149.073 72.8754 149.391 72.71 149.722C72.5239 150.127 72.205 150.456 71.8061 150.655C71.381 150.797 70.9182 150.774 70.5096 150.59C70.129 150.447 69.79 150.275 69.4569 150.168C69.1688 150.075 68.8635 150.046 68.5632 150.086C68.2629 150.125 67.975 150.23 67.7203 150.394C67.3633 150.612 67.0716 150.922 66.8758 151.292C66.745 151.553 66.7093 151.726 66.6855 151.72C66.6617 151.714 66.6855 151.542 66.7688 151.238C66.9842 150.711 67.3873 150.283 67.9003 150.035C68.4133 149.788 68.9997 149.74 69.5461 149.9C69.9089 150.007 70.2538 150.174 70.6107 150.305C70.9484 150.462 71.3341 150.484 71.6871 150.364C72.0216 150.192 72.2894 149.914 72.4484 149.573C72.6169 149.229 72.8159 148.9 73.0431 148.592C73.483 148.074 74.0918 147.728 74.7618 147.616C75.2024 147.534 75.6566 147.565 76.0821 147.706C76.2458 147.742 76.3974 147.82 76.5222 147.932Z" fill="#FAFAFA"/>
<path d="M69.576 157.685C69.2803 157.357 68.9171 157.097 68.5115 156.924C68.0738 156.753 67.5908 156.738 67.1436 156.882C66.8783 156.984 66.6217 157.107 66.3764 157.251C66.078 157.435 65.7256 157.513 65.3773 157.471C65.0335 157.387 64.7353 157.174 64.5447 156.876C64.3603 156.62 64.2176 156.364 64.051 156.156C63.9098 155.975 63.7296 155.827 63.5238 155.724C63.318 155.621 63.0917 155.566 62.8616 155.562C62.4218 155.564 61.9929 155.699 61.6305 155.948C61.6305 155.948 61.69 155.817 61.8803 155.669C62.2436 155.415 62.6885 155.305 63.1283 155.361C63.5681 155.417 63.9712 155.635 64.2592 155.972C64.4495 156.198 64.6041 156.454 64.7766 156.686C64.9236 156.924 65.1551 157.098 65.4248 157.173C65.972 157.268 66.4716 156.775 67.0425 156.614C67.5528 156.466 68.0996 156.506 68.5828 156.727C69.4214 157.102 69.6117 157.697 69.576 157.685Z" fill="#FAFAFA"/>
<path d="M54.2618 165.904C53.9629 165.577 53.598 165.318 53.1913 165.142C52.7516 164.978 52.2686 164.969 51.8235 165.119C51.5587 165.222 51.3022 165.345 51.0563 165.487C50.7542 165.679 50.3943 165.759 50.0393 165.713C49.698 165.628 49.4023 165.415 49.2126 165.119C49.0223 164.863 48.8796 164.607 48.719 164.405C48.5769 164.224 48.3966 164.077 48.1909 163.974C47.9853 163.871 47.7594 163.815 47.5296 163.81C47.0893 163.81 46.6595 163.945 46.2985 164.197C46.2985 164.197 46.352 164.066 46.5483 163.917C46.8329 163.708 47.1762 163.593 47.5296 163.59C47.7971 163.58 48.0635 163.631 48.3079 163.741C48.5524 163.85 48.7684 164.014 48.9391 164.221C49.1294 164.447 49.278 164.702 49.4565 164.934C49.6007 165.173 49.8304 165.347 50.0988 165.422C50.6459 165.517 51.1514 165.023 51.7224 164.863C52.2307 164.714 52.7757 164.754 53.2567 164.976C54.1012 165.321 54.2916 165.916 54.2618 165.904Z" fill="#FAFAFA"/>
<path d="M68.5769 166.094C68.1938 165.872 67.7642 165.741 67.322 165.714C66.8527 165.697 66.3914 165.839 66.0136 166.118C65.7997 166.3 65.6008 166.499 65.4189 166.713C65.1956 166.983 64.8875 167.169 64.5447 167.242C64.1901 167.268 63.839 167.158 63.5634 166.933C63.3017 166.754 63.0876 166.558 62.8616 166.415C62.6688 166.291 62.451 166.212 62.2238 166.182C61.9965 166.152 61.7655 166.173 61.5473 166.243C61.1317 166.389 60.7693 166.657 60.5065 167.01C60.5065 167.01 60.5065 166.867 60.6552 166.659C60.8594 166.371 61.1482 166.152 61.4818 166.035C61.7312 165.938 61.9996 165.901 62.2658 165.926C62.532 165.951 62.7889 166.037 63.0162 166.178C63.266 166.326 63.492 166.522 63.7358 166.683C63.9498 166.862 64.2247 166.952 64.503 166.933C65.0502 166.85 65.3654 166.219 65.853 165.88C66.2883 165.576 66.8174 165.437 67.3458 165.488C67.5834 165.49 67.8174 165.546 68.0305 165.651C68.2437 165.756 68.4304 165.907 68.5769 166.094Z" fill="#FAFAFA"/>
<path d="M63.8485 172.624C63.4621 172.409 63.0343 172.279 62.5936 172.243C62.1226 172.227 61.6596 172.369 61.2793 172.648C61.0667 172.831 60.8679 173.03 60.6846 173.242C60.4619 173.513 60.1535 173.7 59.8103 173.772C59.4568 173.797 59.1066 173.689 58.8291 173.468C58.5674 173.284 58.3533 173.088 58.1273 172.951C57.9355 172.825 57.7179 172.743 57.4904 172.712C57.2629 172.682 57.0314 172.702 56.8129 172.773C56.3962 172.917 56.0331 173.184 55.7722 173.54C55.7855 173.412 55.835 173.29 55.9149 173.189C56.1776 172.823 56.5686 172.57 57.0098 172.481C57.451 172.392 57.9096 172.473 58.2938 172.707C58.5495 172.856 58.7755 173.052 59.0194 173.213C59.2334 173.392 59.5082 173.481 59.7866 173.462C60.3337 173.379 60.6489 172.749 61.1366 172.41C61.5727 172.108 62.1011 171.969 62.6293 172.017C62.8647 172.022 63.0959 172.079 63.3067 172.184C63.5174 172.289 63.7024 172.439 63.8485 172.624Z" fill="#FAFAFA"/>
<path d="M53.8631 188.836C53.5589 188.513 53.1901 188.258 52.7807 188.087C52.3381 187.931 51.8554 187.931 51.4128 188.087C51.1493 188.195 50.8948 188.324 50.6516 188.473C50.3563 188.66 50.0056 188.74 49.6584 188.699C49.3122 188.618 49.0114 188.404 48.8198 188.104C48.6295 187.855 48.4808 187.599 48.3143 187.397C48.1714 187.217 47.9909 187.071 47.7854 186.968C47.5799 186.865 47.3545 186.808 47.1249 186.802C46.6838 186.808 46.2556 186.952 45.8998 187.212C45.8998 187.212 45.9533 187.076 46.1436 186.921C46.4288 186.712 46.7714 186.596 47.1249 186.588C47.3906 186.572 47.6563 186.618 47.9016 186.721C48.147 186.824 48.3655 186.982 48.5403 187.183C48.7306 187.409 48.8853 187.664 49.0637 187.89C49.213 188.127 49.447 188.297 49.7179 188.366C50.265 188.455 50.7586 187.956 51.3296 187.771C51.8379 187.618 52.3843 187.652 52.8699 187.867C53.6906 188.253 53.8928 188.842 53.8631 188.836Z" fill="#FAFAFA"/>
<path d="M65.5498 192.285C65.1714 192.063 64.7494 191.925 64.3127 191.881C63.8436 191.858 63.3805 191.994 62.9984 192.267C62.7843 192.449 62.5853 192.648 62.4037 192.862C62.1767 193.128 61.8664 193.308 61.5235 193.374C61.1698 193.399 60.8201 193.286 60.5481 193.058C60.2865 192.874 60.0724 192.672 59.8523 192.529C59.6611 192.402 59.4442 192.318 59.217 192.284C58.9899 192.251 58.758 192.267 58.538 192.333C58.1212 192.474 57.7566 192.737 57.4913 193.088C57.4913 193.088 57.4913 192.945 57.64 192.743C57.8509 192.465 58.1413 192.258 58.4726 192.149C58.7245 192.06 58.9931 192.028 59.2587 192.057C59.5243 192.086 59.78 192.174 60.0069 192.315C60.2567 192.47 60.4827 192.666 60.7206 192.832C60.9349 193.012 61.2084 193.105 61.4878 193.094C62.0349 193.011 62.362 192.392 62.8497 192.059C63.2902 191.763 63.8204 191.631 64.3484 191.685C64.5802 191.692 64.8077 191.749 65.0152 191.853C65.2226 191.957 65.405 192.104 65.5498 192.285Z" fill="#FAFAFA"/>
<path d="M27.0354 143.114C27.3922 143.537 40.4701 161.021 40.4701 161.021L38.6324 162.068L25.2096 144.821L27.0354 143.114Z" fill="#263238"/>
<path d="M78.0682 155.603C78.0682 155.603 65.8051 176.758 64.9843 177.144C63.3489 177.911 44.5318 161.646 42.7358 160.094C42.492 159.761 41.9805 159.065 40.9516 157.679C40.9516 157.679 39.4708 150.881 37.8829 151.405C36.2949 151.928 38.7511 154.86 37.7223 157.441C36.6934 160.022 31.9654 153.873 31.7751 153.314L30.5856 151.72C30.5856 151.72 29.307 155.342 29.3962 156.858C29.6697 161.705 34.255 167.468 34.255 167.468C34.255 167.468 52.8936 190.817 67.0005 191.608C71.0624 191.84 78.8235 180.142 83.6527 171.494C86.5668 166.273 85.2108 160.974 80.3817 157.447L78.0682 155.603Z" fill="#FFBE9D"/>
<path d="M31.6978 157.685C30.8928 156.612 30.2884 155.403 29.9136 154.116C29.9612 154.116 30.3121 154.919 30.8057 155.9C31.2993 156.882 31.7394 157.661 31.6978 157.685Z" fill="#EB996E"/>
<path d="M77.4916 149.692C77.0099 149.984 65.5972 171.156 65.5972 171.156L80.2809 182.652C82.5253 177.076 84.4709 171.384 86.1091 165.601C86.6563 163.526 86.3768 157.977 85.6036 155.836C84.5093 152.797 82.856 153.552 80.376 151.774L77.4916 149.692Z" fill="#EB7910"/>
<g opacity="0.7">
<path d="M82.3146 149.692C82.3146 149.692 82.1719 149.608 81.8983 149.472C81.4998 149.269 81.0541 149.176 80.6078 149.204C79.9036 149.27 79.236 149.548 78.6928 150.001C77.9658 150.582 77.3286 151.268 76.8016 152.035C76.1555 152.994 75.5599 153.987 75.0174 155.009C74.4227 156.085 73.7447 157.239 73.0548 158.452C71.6691 160.872 70.1407 163.537 68.5468 166.332C67.5655 168.027 66.6199 169.674 65.7278 171.221L65.6922 171.03L75.624 178.881L78.5084 181.194L79.2697 181.825C79.3628 181.893 79.4485 181.97 79.5254 182.056C79.424 182.003 79.3283 181.939 79.2399 181.866L78.443 181.271L75.5051 179.023L65.5078 171.292L65.4007 171.209L65.5018 171.066C66.3939 169.52 67.3395 167.872 68.3089 166.171C69.9147 163.382 71.4491 160.73 72.8407 158.309L74.8271 154.878C75.369 153.856 75.9645 152.863 76.6112 151.904C77.163 151.116 77.833 150.418 78.5976 149.834C79.1733 149.376 79.8739 149.103 80.6078 149.049C81.0732 149.033 81.5336 149.15 81.934 149.388C82.038 149.446 82.1375 149.512 82.2314 149.585C82.2909 149.656 82.3206 149.686 82.3146 149.692Z" fill="black"/>
</g>
<path d="M77.9318 169.544C77.6378 169.214 77.2742 168.954 76.8672 168.782C76.4297 168.613 75.9476 168.596 75.4993 168.735C75.234 168.839 74.9774 168.964 74.7322 169.11C74.4327 169.292 74.0812 169.369 73.733 169.33C73.3893 169.246 73.091 169.033 72.9004 168.735C72.716 168.479 72.5733 168.223 72.4068 168.015C72.2655 167.834 72.0854 167.686 71.8796 167.583C71.6737 167.48 71.4474 167.425 71.2173 167.421C70.7775 167.423 70.3486 167.558 69.9863 167.807C69.9863 167.807 70.0457 167.676 70.2361 167.522C70.526 167.319 70.8697 167.207 71.2233 167.201C71.49 167.19 71.7555 167.242 71.999 167.351C72.2425 167.461 72.4573 167.625 72.6268 167.831C72.8171 168.057 72.9718 168.313 73.1442 168.545C73.2929 168.781 73.5238 168.955 73.7925 169.032C74.3396 169.127 74.8392 168.634 75.4101 168.473C75.9198 168.323 76.4665 168.361 76.9505 168.58C77.7771 168.955 77.9912 169.55 77.9318 169.544Z" fill="#FAFAFA"/>
<path d="M84.64 166.808C84.4505 166.406 84.1695 166.054 83.8193 165.78C83.443 165.501 82.9846 165.357 82.5169 165.369C82.2342 165.402 81.9541 165.454 81.6783 165.524C81.3403 165.619 80.9801 165.598 80.6554 165.464C80.3469 165.287 80.1189 164.997 80.0191 164.656C79.912 164.358 79.8406 164.061 79.7395 163.835C79.6514 163.622 79.5171 163.432 79.3463 163.278C79.1756 163.123 78.9727 163.009 78.7523 162.943C78.3277 162.827 77.878 162.841 77.4617 162.984C77.4617 162.984 77.551 162.871 77.7769 162.782C78.108 162.656 78.4706 162.64 78.8118 162.735C79.0726 162.797 79.3156 162.918 79.5219 163.089C79.7283 163.26 79.8923 163.477 80.0012 163.722C80.1202 163.989 80.1975 164.275 80.3045 164.549C80.3811 164.816 80.5579 165.044 80.7981 165.185C81.2977 165.429 81.9103 165.09 82.505 165.084C83.035 165.083 83.5485 165.268 83.9561 165.607C84.153 165.743 84.3167 165.922 84.4351 166.13C84.5535 166.338 84.6235 166.57 84.64 166.808Z" fill="#FAFAFA"/>
<path d="M84.9853 158.053C84.7928 157.655 84.5122 157.305 84.1646 157.031C83.7896 156.75 83.3302 156.605 82.8621 156.62C82.5786 156.647 82.298 156.699 82.0236 156.775C81.6852 156.871 81.324 156.848 81.0006 156.709C80.6937 156.533 80.4661 156.246 80.3643 155.907C80.2572 155.609 80.1859 155.312 80.0848 155.08C79.9945 154.869 79.8595 154.679 79.6891 154.525C79.5186 154.371 79.3168 154.256 79.0975 154.188C78.6729 154.072 78.2232 154.086 77.807 154.229C77.807 154.229 77.8962 154.122 78.1222 154.027C78.4538 153.904 78.8155 153.887 79.157 153.98C79.4166 154.044 79.6583 154.167 79.8642 154.338C80.0701 154.509 80.2349 154.724 80.3464 154.967C80.4654 155.234 80.5427 155.526 80.6497 155.794C80.7261 156.063 80.9027 156.293 81.1434 156.436C81.6429 156.674 82.2555 156.335 82.8502 156.335C83.3812 156.328 83.8966 156.514 84.3013 156.858C84.4972 156.994 84.6602 157.172 84.7785 157.378C84.8969 157.585 84.9675 157.816 84.9853 158.053Z" fill="#FAFAFA"/>
<path d="M81.7379 178.203C81.5427 177.806 81.2625 177.457 80.9172 177.18C80.5403 176.898 80.0789 176.754 79.6088 176.77C79.3272 176.797 79.0486 176.848 78.7762 176.924C78.4381 177.019 78.078 176.998 77.7532 176.865C77.4471 176.685 77.22 176.396 77.1169 176.056C77.0039 175.759 76.9385 175.461 76.8314 175.229C76.7425 175.018 76.6086 174.829 76.4392 174.675C76.2697 174.521 76.0687 174.406 75.8501 174.337C75.4256 174.217 74.9741 174.234 74.5596 174.385C74.5596 174.385 74.6488 174.272 74.8748 174.177C75.2951 174.028 75.7559 174.042 76.1665 174.216C76.577 174.389 76.9076 174.711 77.0931 175.116C77.218 175.384 77.2953 175.675 77.4023 175.943C77.4783 176.211 77.6524 176.44 77.89 176.585C78.3955 176.823 79.0081 176.484 79.6028 176.484C80.1338 176.478 80.6492 176.664 81.0539 177.008C81.2498 177.143 81.4128 177.321 81.5311 177.528C81.6494 177.735 81.7201 177.965 81.7379 178.203Z" fill="#FAFAFA"/>
</svg>
