<svg width="24" height="24" viewBox="0 0 24 24" fill="none" xmlns="http://www.w3.org/2000/svg">
<g id="ph:seal-check-bold">
<path id="Vector" d="M21.4453 9.37969C21.1153 9.03563 20.775 8.68031 20.6634 8.41125C20.5641 8.17125 20.5566 7.67719 20.55 7.24219C20.5359 6.30469 20.5181 5.13844 19.6894 4.31063C18.8606 3.48281 17.6953 3.46687 16.7578 3.45C16.3228 3.44344 15.8287 3.43594 15.5887 3.33656C15.3197 3.225 14.9644 2.88469 14.6203 2.55469C13.9566 1.91813 13.1297 1.125 12 1.125C10.8703 1.125 10.0434 1.91813 9.37969 2.55469C9.03563 2.88469 8.68031 3.225 8.41125 3.33656C8.17125 3.43594 7.67719 3.44344 7.24219 3.45C6.30469 3.46875 5.13844 3.48187 4.3125 4.3125C3.48656 5.14313 3.46875 6.30469 3.45 7.24219C3.44344 7.67719 3.43594 8.17125 3.33656 8.41125C3.225 8.68031 2.88469 9.03563 2.55469 9.37969C1.91813 10.0434 1.125 10.875 1.125 12C1.125 13.125 1.91813 13.9566 2.55469 14.625C2.88469 14.9691 3.225 15.3244 3.33656 15.5934C3.43594 15.8334 3.44344 16.3275 3.45 16.7625C3.46406 17.7 3.48187 18.8663 4.31063 19.6941C5.13937 20.5219 6.30469 20.5378 7.24219 20.5547C7.67719 20.5613 8.17125 20.5688 8.41125 20.6681C8.68031 20.7797 9.03563 21.12 9.37969 21.45C10.0434 22.0819 10.875 22.875 12 22.875C13.125 22.875 13.9566 22.0819 14.6203 21.4453C14.9644 21.1153 15.3197 20.775 15.5887 20.6634C15.8287 20.5641 16.3228 20.5566 16.7578 20.55C17.6953 20.5359 18.8616 20.5181 19.6894 19.6894C20.5172 18.8606 20.5331 17.6953 20.55 16.7578C20.5566 16.3228 20.5641 15.8287 20.6634 15.5887C20.775 15.3197 21.1153 14.9644 21.4453 14.6203C22.0819 13.9566 22.875 13.1297 22.875 12C22.875 10.8703 22.0819 10.0434 21.4453 9.37969ZM19.8216 13.0631C19.3697 13.5319 18.8578 14.0681 18.585 14.7281C18.3206 15.3656 18.3103 16.0556 18.3038 16.7241C18.2963 17.2266 18.2859 17.9156 18.1022 18.0984C17.9184 18.2812 17.2303 18.2925 16.7278 18.3C16.0594 18.3103 15.3694 18.3206 14.7319 18.5812C14.0756 18.8541 13.5384 19.3659 13.0669 19.8178C12.7294 20.1413 12.225 20.625 12 20.625C11.775 20.625 11.2706 20.1412 10.9369 19.8216C10.4681 19.3697 9.93188 18.8578 9.27188 18.585C8.63438 18.3206 7.94438 18.3103 7.27594 18.3038C6.77344 18.2963 6.08437 18.2859 5.90156 18.1022C5.71875 17.9184 5.7075 17.2303 5.7 16.7278C5.68969 16.0594 5.67937 15.3694 5.41875 14.7319C5.14594 14.0756 4.63406 13.5384 4.18219 13.0669C3.85875 12.7294 3.375 12.225 3.375 12C3.375 11.775 3.85875 11.2706 4.17844 10.9369C4.63031 10.4681 5.14219 9.93188 5.415 9.27188C5.67937 8.63438 5.68969 7.94438 5.69625 7.27594C5.7075 6.77344 5.71875 6.08437 5.90625 5.90625C6.09375 5.72813 6.77813 5.71219 7.28063 5.70469C7.94906 5.69438 8.63906 5.68406 9.27656 5.42344C9.93281 5.15062 10.47 4.63875 10.9416 4.18687C11.2706 3.85875 11.775 3.375 12 3.375C12.225 3.375 12.7294 3.85875 13.0631 4.17844C13.5319 4.63031 14.0681 5.14219 14.7281 5.415C15.3656 5.67937 16.0556 5.68969 16.7241 5.69625C17.2266 5.70375 17.9156 5.71406 18.0984 5.89781C18.2812 6.08156 18.2925 6.76969 18.3 7.27219C18.3103 7.94063 18.3206 8.63063 18.5812 9.26813C18.8541 9.92438 19.3659 10.4616 19.8178 10.9331C20.1375 11.2669 20.6213 11.7712 20.6213 11.9963C20.6213 12.2212 20.1412 12.7294 19.8216 13.0631ZM16.5459 8.95406C16.6508 9.05858 16.734 9.18277 16.7908 9.31952C16.8476 9.45626 16.8768 9.60287 16.8768 9.75094C16.8768 9.899 16.8476 10.0456 16.7908 10.1824C16.734 10.3191 16.6508 10.4433 16.5459 10.5478L11.2959 15.7978C11.1914 15.9027 11.0672 15.9859 10.9305 16.0427C10.7937 16.0995 10.6471 16.1287 10.4991 16.1287C10.351 16.1287 10.2044 16.0995 10.0676 16.0427C9.9309 15.9859 9.8067 15.9027 9.70219 15.7978L7.45219 13.5478C7.34754 13.4432 7.26453 13.3189 7.2079 13.1822C7.15126 13.0455 7.12211 12.8989 7.12211 12.7509C7.12211 12.6029 7.15126 12.4564 7.2079 12.3197C7.26453 12.1829 7.34754 12.0587 7.45219 11.9541C7.55683 11.8494 7.68107 11.7664 7.8178 11.7098C7.95452 11.6531 8.10107 11.624 8.24906 11.624C8.39706 11.624 8.5436 11.6531 8.68033 11.7098C8.81706 11.7664 8.94129 11.8494 9.04594 11.9541L10.5 13.4062L14.9541 8.95125C15.0587 8.84684 15.183 8.76408 15.3196 8.7077C15.4563 8.65133 15.6027 8.62245 15.7506 8.62271C15.8984 8.62297 16.0448 8.65237 16.1812 8.70922C16.3177 8.76608 16.4416 8.84928 16.5459 8.95406Z" fill="#0F2C59"/>
</g>
</svg>
