<svg width="276" height="200" viewBox="0 0 276 200" fill="none" xmlns="http://www.w3.org/2000/svg">
<path d="M276 100C276 57.9212 241.888 23.8096 199.81 23.8096H76.1905C34.1116 23.8096 0 57.9212 0 100V123.81C0 165.888 34.1116 200 76.1905 200H199.81C241.888 200 276 165.888 276 123.81V100Z" fill="#EB7910"/>
<mask id="mask0_28_6407" style="mask-type:alpha" maskUnits="userSpaceOnUse" x="0" y="0" width="276" height="200">
<path d="M276 76.1905C276 34.1116 241.888 0 199.81 0H76.1905C34.1116 0 0 34.1116 0 76.1905V123.81C0 165.888 34.1116 200 76.1905 200H199.81C241.888 200 276 165.888 276 123.81V76.1905Z" fill="#23BA3B"/>
</mask>
<g mask="url(#mask0_28_6407)">
<path d="M68.8334 149.931L106.38 135.912C107.761 135.396 109.194 135.031 110.653 134.822L154.07 128.616C157.763 128.088 161.53 128.577 164.966 130.03L222.872 154.523C227.909 156.653 231.887 160.706 233.922 165.782L263.772 240.214C269.269 253.92 258.921 268.77 244.16 268.36L225.071 267.829C223.603 267.788 222.277 266.943 221.621 265.63L221.108 264.603C219.464 261.312 214.535 262.241 214.202 265.906C214.031 267.787 212.453 269.228 210.564 269.228H52.0721C38.4744 269.228 28.6383 256.241 32.3228 243.152L39.6272 217.203L56.4142 163.075C58.2959 157.007 62.8822 152.154 68.8334 149.931Z" fill="#D00000"/>
<path d="M188.537 139.999L159.715 127.809L108.459 135.136L93.8633 140.586C112.951 161.998 147.613 179.513 188.537 139.999Z" fill="#AEAEAE"/>
<path d="M114.316 130.007C115.488 127.662 113.828 118.283 112.852 113.886C104.651 105.68 98.6953 85.5535 96.7427 76.5164L90.8848 50.8703L105.53 31.8189L134.819 31.0862C143.85 39.8791 163.23 58.0512 168.502 60.396C175.092 63.327 175.092 71.3871 172.896 79.4473C171.138 85.8955 166.305 88.4845 164.109 88.973L161.18 100.697C161.912 109.001 163.669 126.05 164.841 127.808C166.013 129.567 173.628 133.915 177.289 135.869C143.899 167.523 114.561 149.547 104.065 136.601C106.994 135.38 113.145 132.352 114.316 130.007Z" fill="#E5A072"/>
<path d="M161.186 100.78C161.923 109.114 163.673 126.056 164.84 127.808C166.012 129.567 173.627 133.915 177.288 135.869C173.45 139.508 169.665 142.491 165.956 144.901C147.186 137.791 125.064 128.037 113.837 118.969C113.66 117.917 113.472 116.902 113.289 115.978C120.672 119.555 131.808 121.713 142.141 119.016C151.199 116.651 157.013 108.524 161.186 100.78Z" fill="#BE693B"/>
<path d="M165.572 69.9216C167.525 71.1429 170.698 74.4646 167.769 77.9818" stroke="#232323" stroke-width="2.93098" stroke-linecap="round"/>
<path d="M96.0098 71.3872C99.4269 87.5076 106.993 119.455 127.496 121.214" stroke="#232323" stroke-width="2.93098" stroke-linecap="round"/>
<path d="M98.206 72.1199V80.9128C86.4901 60.396 86.4902 49.8933 87.9547 47.2066L86.4902 45.0083C97.6203 9.83661 129.204 13.2561 143.605 19.3623C164.108 19.9485 169.721 47.4508 169.966 61.1287C164.693 58.7839 161.911 65.5252 161.179 69.1889C160.593 62.1546 149.707 48.6721 144.337 42.8101L129.692 37.6809C120.32 51.1634 105.284 53.557 98.9382 53.0685C93.6661 56.5857 96.2534 67.2349 98.206 72.1199Z" fill="#232323"/>
<path d="M119.441 70.6543C119.929 75.7835 120.612 86.6281 119.441 88.9729C117.976 91.9039 123.102 93.3694 127.495 91.9039" stroke="#232323" stroke-width="2.34478" stroke-linecap="round"/>
<path d="M102.8 62.2497C109.509 57.7627 112.453 60.0248 113.505 61.6345C113.883 62.2128 113.531 62.8833 112.886 63.1319L110.615 64.0077C106.382 65.6398 102.496 68.0575 99.1616 71.1334C98.7287 71.5326 98.0389 71.5218 97.7522 71.0076C96.7701 69.2466 96.9163 66.1841 102.8 62.2497Z" fill="#232323"/>
<path d="M132.635 54.4006C138.036 54.3335 141.977 56.2862 144.659 58.3047C145.837 59.1911 144.843 60.8876 143.394 60.6186C132.484 58.5933 124.509 60.9836 123.371 60.1207C122.066 59.1309 121.435 54.5399 132.635 54.4006Z" fill="#232323"/>
<mask id="mask1_28_6407" style="mask-type:alpha" maskUnits="userSpaceOnUse" x="98" y="70" width="23" height="14">
<path d="M115.781 70.6543C105.59 70.6543 100.351 75.1588 98.6028 77.9815C98.33 78.4219 98.3945 78.9921 98.715 79.3992C109.139 92.6375 129.467 70.6543 115.781 70.6543Z" fill="black"/>
</mask>
<g mask="url(#mask1_28_6407)">
<ellipse cx="108.829" cy="75.4203" rx="6.59067" ry="6.59419" transform="rotate(-19.6555 108.829 75.4203)" fill="white"/>
<ellipse cx="107.727" cy="77.249" rx="4.39344" ry="4.39647" fill="#232323"/>
</g>
<mask id="mask2_28_6407" style="mask-type:alpha" maskUnits="userSpaceOnUse" x="125" y="64" width="23" height="14">
<path d="M142.873 64.1292C132.682 64.1292 127.443 68.6337 125.695 71.4563C125.422 71.8968 125.486 72.467 125.807 72.8741C136.231 86.1124 156.559 64.1292 142.873 64.1292Z" fill="black"/>
</mask>
<g mask="url(#mask2_28_6407)">
<ellipse cx="135.921" cy="68.8949" rx="6.59067" ry="6.59419" transform="rotate(-19.6555 135.921 68.8949)" fill="white"/>
<ellipse cx="134.819" cy="70.7236" rx="4.39344" ry="4.39647" fill="#232323"/>
</g>
<path d="M178.53 47.0914L187.246 34.0797" stroke="white" stroke-width="2.49084" stroke-linecap="round"/>
<path d="M183.138 53.2994L195.863 44.1513" stroke="white" stroke-width="2.49084" stroke-linecap="round"/>
<path d="M187.33 60.1986L202.762 57.3573" stroke="white" stroke-width="2.49084" stroke-linecap="round"/>
<path d="M100.402 75.0508C102.599 73.3411 108.75 70.0681 115.779 70.6543" stroke="#232323" stroke-width="2.34478" stroke-linecap="round"/>
<path d="M127.496 68.5257C129.693 66.8159 135.844 63.543 142.873 64.1292" stroke="#232323" stroke-width="2.34478" stroke-linecap="round"/>
<ellipse opacity="0.3" cx="6.65887" cy="2.67575" rx="6.65887" ry="2.67575" transform="matrix(0.978901 -0.204334 0.204064 0.978958 132.621 82.9014)" fill="#E50A3E"/>
<ellipse opacity="0.3" cx="6.65887" cy="2.67575" rx="6.65887" ry="2.67575" transform="matrix(0.978901 -0.204334 0.204064 0.978958 103.332 88.7634)" fill="#E50A3E"/>
<ellipse cx="7.93239" cy="2.4674" rx="7.93239" ry="2.4674" transform="matrix(0.988147 -0.153511 0.153304 0.988179 126.764 101.667)" fill="#232323"/>
<path d="M85.2331 199.144L65.1168 157.151C64.7013 156.284 63.8686 155.692 62.913 155.584L44.3464 153.49C42.6768 153.302 41.22 154.621 41.2414 156.301L41.9785 214.309C42.003 216.235 43.9227 217.558 45.7303 216.894L83.676 202.973C85.2224 202.405 85.9447 200.629 85.2331 199.144Z" fill="#FBF3E7"/>
<path d="M43.7344 97.1925C43.4549 99.6739 52.6693 110.765 57.3115 116.001L60.2221 118.745C61.1742 119.643 62.6223 119.759 63.7052 119.023L95.2212 97.6136C96.5015 96.7439 96.8307 94.9986 95.9549 93.7227L81.5621 72.754C80.7025 71.5016 79.0014 71.1651 77.7346 72.0038C65.238 80.2771 43.9971 94.86 43.7344 97.1925Z" fill="#E50A3E"/>
<path d="M43.8426 115.738C28.7018 123.077 28.9475 131.859 30.9629 135.332C27.54 138.967 31.341 143.123 33.6695 144.747C36.0705 151.3 45.5874 167.137 53.2713 165.805C59.4184 164.739 64.5207 160.687 66.3034 158.794L64.0771 150.689C68.5306 140.134 65.0893 127.768 62.8119 122.904C64.5947 121.011 68.086 116.211 67.7892 112.156C67.4183 107.089 62.7687 106.564 43.8426 115.738Z" fill="#E5A072"/>
<path d="M60.1047 113.489C59.3364 111.392 62.7971 110.023 64.6234 109.601C65.8167 110.154 67.9894 111.488 67.1337 112.397C66.064 113.533 61.0651 116.11 60.1047 113.489Z" fill="#EFC6AA"/>
<path d="M58.9269 118.382L56.5908 114.035" stroke="#232323" stroke-width="2.23356" stroke-linecap="round"/>
<path d="M66.5449 114.843C60.3163 118.12 46.5841 124.843 37.2062 130.068" stroke="#232323" stroke-width="2.23356" stroke-linecap="round"/>
<path d="M48.2726 146.08C51.7434 144.063 59.2833 140.851 61.6756 144.136C64.6661 148.243 62.5268 150.515 56.873 153.332" stroke="#232323" stroke-width="2.23356" stroke-linecap="round"/>
<path d="M45.567 136.665C48.3612 134.153 56.8223 129.264 60.4545 132.69C64.0868 136.115 63.3793 142.024 62.5716 144.551" stroke="#232323" stroke-width="2.23356" stroke-linecap="round"/>
<path d="M52.8588 122.095C56.2568 122.583 63.2492 125.717 60.4549 132.69" stroke="#232323" stroke-width="2.23356" stroke-linecap="round"/>
<rect width="36.2744" height="4.75481" rx="2.37741" transform="matrix(-0.823141 0.568027 0.567374 0.82333 77.1133 76.7686)" fill="#F2D1BB"/>
<rect width="36.2744" height="3.24462" rx="1.62231" transform="matrix(-0.823141 0.568027 0.567374 0.82333 80.5391 81.4595)" fill="#F2D1BB"/>
<path d="M65.4316 158.333C71.3799 176.191 86.9644 213.453 101.716 219.643" stroke="#232323" stroke-width="2.14286" stroke-linecap="round"/>
<path d="M219.517 200.906L227.595 155.044C227.762 154.097 228.405 153.303 229.296 152.941L246.614 145.924C248.171 145.292 249.929 146.17 250.361 147.795L265.255 203.86C265.749 205.721 264.256 207.512 262.337 207.36L222.047 204.174C220.405 204.044 219.231 202.528 219.517 200.906Z" fill="#FBF3E7"/>
<path d="M227.102 159.5C224.679 178.101 216.173 218.552 201.521 231.55" stroke="#232323" stroke-width="2.14286" stroke-linecap="round"/>
<path d="M232.059 91.5393C232.996 93.8539 227.105 107.018 224.043 113.31L221.978 116.738C221.303 117.859 219.939 118.36 218.698 117.944L182.586 105.814C181.119 105.321 180.333 103.729 180.833 102.264L189.054 78.1923C189.545 76.7547 191.093 75.9724 192.539 76.439C206.8 81.0408 231.179 89.3637 232.059 91.5393Z" fill="#E50A3E"/>
<path d="M236.943 109.43C253.499 112.419 255.625 120.943 254.618 124.831C258.892 127.409 256.35 132.436 254.544 134.627C253.994 141.585 249.089 159.402 241.33 160.188C235.123 160.818 229.119 158.289 226.893 156.946L226.857 148.541C219.729 139.575 219.717 126.738 220.602 121.44C218.375 120.097 213.722 116.415 212.917 112.431C211.911 107.45 216.248 105.692 236.943 109.43Z" fill="#E5A072"/>
<path d="M220.676 111.644C220.852 109.417 217.151 109.031 215.278 109.116C214.278 109.971 212.544 111.841 213.613 112.485C214.948 113.291 220.456 114.427 220.676 111.644Z" fill="#EFC6AA"/>
<path d="M223.127 116.039L224.208 111.223" stroke="#232323" stroke-width="2.23356" stroke-linecap="round"/>
<path d="M214.838 114.683C221.718 116.161 236.752 118.937 247.189 121.443" stroke="#232323" stroke-width="2.23356" stroke-linecap="round"/>
<path d="M240.839 139.845C236.954 138.837 228.828 137.775 227.408 141.583C225.632 146.344 228.304 147.956 234.507 149.146" stroke="#232323" stroke-width="2.23356" stroke-linecap="round"/>
<path d="M240.913 130.048C237.546 128.382 228.083 125.953 225.506 130.23C222.929 134.507 225.2 140.008 226.658 142.224" stroke="#232323" stroke-width="2.23356" stroke-linecap="round"/>
<path d="M229.971 117.98C226.83 119.366 220.939 124.268 225.505 130.23" stroke="#232323" stroke-width="2.23356" stroke-linecap="round"/>
<rect width="36.272" height="4.75513" rx="2.37757" transform="matrix(0.945619 0.325357 -0.324939 0.945707 194.418 80.8604)" fill="#F2D1BB"/>
<rect width="36.272" height="3.24483" rx="1.62242" transform="matrix(0.945619 0.325357 -0.324939 0.945707 192.383 86.3008)" fill="#F2D1BB"/>
</g>
</svg>
