<svg width="36" height="36" viewBox="0 0 36 36" fill="none" xmlns="http://www.w3.org/2000/svg">
<g id="iconoir:select-face-3d">
<g id="Group">
<path id="Vector" d="M31.5 11.0303V24.9713C31.5001 25.132 31.4571 25.2898 31.3756 25.4282C31.2941 25.5667 31.177 25.6809 31.0365 25.7588L18.4365 32.7578C18.3029 32.8319 18.1527 32.8707 18 32.8707C17.8473 32.8707 17.6971 32.8319 17.5635 32.7578L4.9635 25.7588C4.82298 25.6809 4.70588 25.5667 4.62437 25.4282C4.54287 25.2898 4.49992 25.132 4.5 24.9713V11.0303C4.50019 10.8699 4.54326 10.7124 4.62475 10.5742C4.70625 10.436 4.8232 10.3221 4.9635 10.2443L17.5635 3.2438C17.6971 3.16972 17.8473 3.13086 18 3.13086C18.1527 3.13086 18.3029 3.16972 18.4365 3.2438L31.0365 10.2443C31.1768 10.3221 31.2938 10.436 31.3752 10.5742C31.4567 10.7124 31.4998 10.8699 31.5 11.0303Z" stroke="#0F2C59" stroke-width="1.5" stroke-linecap="round" stroke-linejoin="round"/>
<path id="Vector_2" d="M5.29199 10.942L17.562 17.758C17.6957 17.8323 17.8462 17.8713 17.9992 17.8713C18.1523 17.8713 18.3027 17.8323 18.4365 17.758L30.75 10.918M18 31.501V18.001" stroke="#0F2C59" stroke-width="1.5" stroke-linecap="round" stroke-linejoin="round"/>
<path id="Vector_3" d="M17.5365 17.7448L5.8365 11.2438C5.69946 11.1678 5.54495 11.1289 5.38826 11.1309C5.23157 11.133 5.07812 11.1759 4.94311 11.2555C4.8081 11.335 4.6962 11.4484 4.61848 11.5845C4.54077 11.7206 4.49992 11.8746 4.5 12.0313V24.9718C4.49992 25.1325 4.54287 25.2903 4.62437 25.4287C4.70588 25.5672 4.82298 25.6814 4.9635 25.7593L16.6635 32.2588C16.8005 32.3348 16.9551 32.3737 17.1117 32.3717C17.2684 32.3696 17.4219 32.3267 17.5569 32.2471C17.6919 32.1676 17.8038 32.0542 17.8815 31.9181C17.9592 31.782 18.0001 31.628 18 31.4713V18.5308C17.9998 18.3704 17.9567 18.2129 17.8752 18.0747C17.7938 17.9365 17.6768 17.8226 17.5365 17.7448Z" fill="#0F2C59" stroke="#0F2C59" stroke-width="1.5" stroke-linejoin="round"/>
</g>
</g>
</svg>
