<svg width="22" height="22" viewBox="0 0 22 22" fill="none" xmlns="http://www.w3.org/2000/svg">
<path d="M12.6391 7.22214H11.2849M12.6391 7.22214H13.9428M12.6391 7.22214V5.41659M12.6391 7.22214V10.8333M12.6391 10.8333C12.6391 10.8333 8.12516 9.0277 8.12516 12.6388C8.12516 16.2499 12.6391 15.3471 12.6391 15.3471V10.8333ZM18.9585 10.8333C18.9585 11.9002 18.7483 12.9568 18.34 13.9426C17.9317 14.9283 17.3332 15.824 16.5787 16.5785C15.8243 17.333 14.9286 17.9315 13.9428 18.3398C12.957 18.7481 11.9005 18.9583 10.8335 18.9583C9.76651 18.9583 8.70996 18.7481 7.72419 18.3398C6.73842 17.9315 5.84273 17.333 5.08825 16.5785C4.33378 15.824 3.73529 14.9283 3.32697 13.9426C2.91866 12.9568 2.7085 11.9002 2.7085 10.8333C2.7085 8.67837 3.56452 6.61174 5.08825 5.08801C6.61199 3.56428 8.67861 2.70825 10.8335 2.70825C12.9884 2.70825 15.055 3.56428 16.5787 5.08801C18.1025 6.61174 18.9585 8.67837 18.9585 10.8333Z" stroke="#EB7910" stroke-linecap="round" stroke-linejoin="round"/>
</svg>
