<svg width="52" height="53" viewBox="0 0 52 53" fill="none" xmlns="http://www.w3.org/2000/svg">
<path d="M4.33345 24.2466C4.08191 24.1083 3.86086 23.9207 3.68352 23.6949C3.50618 23.4692 3.3762 23.21 3.30136 22.9329C3.22651 22.6558 3.20834 22.3664 3.24794 22.0821C3.28753 21.7978 3.38407 21.5244 3.53179 21.2783L6.78179 15.6666C7.02012 15.2333 7.38845 14.9299 7.80012 14.7566L24.7651 5.22325C25.1118 4.96325 25.5451 4.83325 26.0001 4.83325C26.4551 4.83325 26.8885 4.96325 27.2351 5.22325L44.3518 14.8433C44.7635 15.0599 45.1101 15.4066 45.3051 15.8399L48.4468 21.2999C49.0535 22.3399 48.6851 23.6616 47.6668 24.2466L45.5001 25.5033V36.2499C45.5001 37.0732 45.0451 37.7882 44.3518 38.1566L27.2351 47.7766C26.8885 48.0366 26.4551 48.1666 26.0001 48.1666C25.5451 48.1666 25.1118 48.0366 24.7651 47.7766L7.64845 38.1566C7.30109 37.974 7.0104 37.6998 6.80795 37.3637C6.60549 37.0275 6.49903 36.6423 6.50012 36.2499V24.2466C5.85012 24.6149 5.02679 24.6366 4.33345 24.2466ZM26.0001 9.49159V24.0083L38.9135 16.7499L26.0001 9.49159ZM10.8335 34.9716L23.8335 42.2949V27.7566L10.8335 20.4549V34.9716ZM41.1668 34.9716V27.9949L30.3335 34.2782C29.6185 34.6683 28.8168 34.6466 28.1668 34.2999V42.2949L41.1668 34.9716ZM30.0085 29.4466L43.6151 21.5816L42.3585 19.3933L28.7518 27.2583L30.0085 29.4466Z" fill="#026D4D"/>
</svg>
