<svg width="277" height="201" viewBox="0 0 277 201" fill="none" xmlns="http://www.w3.org/2000/svg">
<path d="M276.377 100.72C276.377 58.6412 242.265 24.5295 200.186 24.5295H76.3769C34.2981 24.5295 0.186401 58.6412 0.186401 100.72V124.53C0.186401 166.608 34.298 200.72 76.3769 200.72H200.186C242.265 200.72 276.377 166.608 276.377 124.53V100.72Z" fill="#026D4D"/>
<rect x="187.402" y="6.67236" width="14.1898" height="2.78483" transform="rotate(32.6414 187.402 6.67236)" fill="white"/>
<rect x="211.037" y="62.9136" width="18.4741" height="4.92701" transform="rotate(-30.1116 211.037 62.9136)" fill="#E50A3E"/>
<rect x="244.523" y="31.7424" width="9.90543" height="4.92701" transform="rotate(37.6414 244.523 31.7424)" fill="#FFB21D"/>
<mask id="mask0_28_6010" style="mask-type:alpha" maskUnits="userSpaceOnUse" x="0" y="0" width="277" height="201">
<rect width="276.191" height="200" rx="76.1905" transform="matrix(-1 0 0 1 276.377 0.719971)" fill="#026D4D"/>
</mask>
<g mask="url(#mask0_28_6010)">
<rect x="88.668" y="79.6924" width="14.1898" height="2.78483" transform="rotate(-106.554 88.668 79.6924)" fill="white"/>
<rect x="287.828" y="84.8669" width="14.1898" height="7.06918" transform="rotate(-172.307 287.828 84.8669)" fill="#F2D1BB"/>
<rect x="154.248" y="108.781" width="14.1898" height="7.06918" transform="rotate(-167.307 154.248 108.781)" fill="white"/>
<rect x="107.529" y="21.6755" width="18.4741" height="4.92701" transform="rotate(-169.307 107.529 21.6755)" fill="#E50A3E"/>
<rect x="61.8125" y="23.3879" width="9.90543" height="4.92701" transform="rotate(-101.554 61.8125 23.3879)" fill="#FFB21D"/>
<rect x="101.281" y="38.4678" width="12.0476" height="7.06918" transform="rotate(-136.554 101.281 38.4678)" fill="#FFB21D"/>
<rect x="51.334" y="77.2871" width="5.62107" height="2.78483" transform="rotate(-66.5544 51.334 77.2871)" fill="#FFB21D"/>
<ellipse cx="81.4856" cy="135.734" rx="3.38464" ry="3.38464" transform="rotate(91.6925 81.4856 135.734)" fill="#E50A3E"/>
<ellipse cx="222.301" cy="157.039" rx="1.24246" ry="1.24246" transform="rotate(91.6925 222.301 157.039)" fill="white"/>
<ellipse cx="215.687" cy="163.274" rx="3.38464" ry="3.38464" transform="rotate(91.6925 215.687 163.274)" fill="white"/>
<ellipse cx="149.79" cy="108.82" rx="4.45573" ry="4.45573" transform="rotate(91.6925 149.79 108.82)" fill="#FFB21D"/>
<ellipse cx="9.9936" cy="88.7639" rx="2.31355" ry="2.31355" transform="rotate(-9.55445 9.9936 88.7639)" fill="#E50A3E"/>
<ellipse cx="144.821" cy="59.3818" rx="4.45573" ry="4.45573" transform="rotate(91.6925 144.821 59.3818)" fill="#FFB21D"/>
<ellipse cx="212.264" cy="97.8074" rx="2.31355" ry="2.31355" transform="rotate(91.6925 212.264 97.8074)" fill="#E50A3E"/>
<ellipse cx="34.9583" cy="42.2051" rx="3.38464" ry="3.38464" transform="rotate(91.6925 34.9583 42.2051)" fill="white"/>
<path d="M98.8078 78.2855L101.011 77.136L103.108 78.4692L103.002 80.9518L100.799 82.1014L98.7017 80.7682L98.8078 78.2855Z" fill="#F2D1BB"/>
<path d="M61.898 45.3341L60.7861 48.6678L57.4524 47.5559L58.5643 44.2222L61.898 45.3341Z" fill="#E50A3E"/>
<path d="M41.4583 126.532L51.3242 126.264L46.6231 134.942L41.4583 126.532Z" fill="#FFB21D"/>
<path d="M240.756 151.285L244.747 150.041L247.163 153.452L244.665 156.804L240.705 155.465L240.756 151.285Z" fill="white"/>
<path d="M147.934 20.7262L145.893 16.9368L150.195 17.064L147.934 20.7262Z" fill="#F2D1BB"/>
<path d="M100.573 199.728L99.99 196.263L103.455 195.68L104.039 199.145L100.573 199.728Z" fill="white"/>
<path d="M188.688 159.773C192.98 150.003 203.341 129.754 210.446 126.912C219.328 123.36 226.433 121.139 229.541 118.031C232.649 114.923 236.646 113.146 238.866 115.367C240.643 117.143 231.909 123.804 227.321 126.912C227.765 127.8 229.186 129.488 231.317 129.132C233.982 128.688 253.964 128.688 260.625 127.8C267.286 126.912 268.174 130.909 268.174 131.797C268.174 132.685 257.517 133.573 252.188 134.461C248.81 135.024 245.952 134.881 244.322 134.65C248.783 135.48 257.617 137.145 264.178 138.458C273.059 140.234 273.059 142.898 272.615 144.23C272.26 145.296 260.921 144.082 255.297 143.342C259.589 144.526 268.174 147.428 268.174 149.559C268.174 151.691 248.34 147.487 238.422 145.119C243.899 148.819 254.852 156.664 254.852 158.44C254.852 160.661 253.076 161.549 251.744 160.661C250.412 159.773 237.978 148.671 226.433 148.671C214.887 148.671 210.446 151.335 207.782 159.773C205.651 166.522 200.529 170.726 198.013 171.762L188.688 159.773Z" fill="#E5A072"/>
<path d="M227.32 126.912C229.393 125.432 234.07 121.85 236.202 119.363" stroke="black" stroke-width="1.42099" stroke-linecap="round"/>
<path d="M238.422 144.675C246.859 147.043 264.266 151.513 266.398 150.447C269.062 149.115 268.174 148.671 260.625 145.119C254.586 142.277 245.379 140.086 241.53 139.346" stroke="black" stroke-width="1.42099" stroke-linecap="round"/>
<path d="M69.2353 116.255L75.8962 145.119L63.4623 156.664C60.2059 145.711 52.4496 122.738 47.4762 118.475C41.2593 113.146 36.8187 114.034 25.7172 112.702C14.6157 111.37 12.8395 110.926 13.2835 108.706C13.6388 106.929 26.4573 106.485 32.8222 106.485C23.793 103.525 5.5569 96.9825 4.84641 94.4958C4.13591 92.009 7.21477 91.9794 8.84301 92.2755C5.73459 90.9433 -0.926311 90.0552 4.40241 86.5027C8.66538 83.6607 23.645 90.0552 30.6019 93.6076C28.5297 91.6834 22.8754 86.6803 16.8362 82.0621C9.28715 76.2893 14.1718 76.7334 18.1684 78.0655C22.1649 79.3977 48.8085 97.6042 51.9169 97.6042C55.0253 97.6042 54.1373 98.0482 50.1407 90.4992C46.1442 82.9502 48.3645 80.2858 52.361 82.5061C55.5583 84.2824 57.2457 89.4631 57.6897 91.8314C59.466 93.7557 63.9066 98.9364 67.4591 104.265C71.0115 109.594 70.1234 114.478 69.2353 116.255Z" fill="#E5A072"/>
<path d="M2.62695 90.0552C9.28785 91.8314 24.6523 96.0944 32.823 98.9364" stroke="#232323" stroke-width="1.42099" stroke-linecap="round"/>
<path d="M72.7873 133.129C71.6031 126.616 70.7446 112.08 76.7838 106.041C82.7467 100.078 106.805 96.2223 118.525 94.9859C132.883 89.0497 165.596 80.9962 181.582 96.2719C197.568 111.548 205.117 124.544 206.893 129.132L192.239 157.552L204.229 165.101L207.781 159.328C212.755 162.17 215.478 167.321 216.218 169.542L202.897 185.084C207.515 195.741 200.676 201.958 196.68 203.734C193.719 207.583 186.289 216.879 180.25 223.273C174.21 229.667 164.411 227.714 160.267 225.937C152.096 232.332 141.172 234.819 136.732 235.263C98.7202 241.302 80.3361 226.233 75.8955 217.944C73.764 215.813 74.4153 211.135 75.0074 209.063C64.35 196.985 63.1658 181.827 63.9059 175.759C61.6856 173.686 55.8241 167.321 50.1402 158.44C44.4562 149.559 52.8045 140.826 57.6892 137.569L62.1298 152.667C74.5634 144.852 74.4155 136.385 72.7873 133.129Z" fill="#EB7910"/>
<path d="M177.141 146.895C170.629 158.736 157.603 184.196 157.603 191.301C151.83 201.662 144.991 223.362 163.82 227.27C169 229.342 182.648 227.714 195.792 204.623" stroke="black" stroke-width="1.42099" stroke-linecap="round"/>
<path d="M109.652 96.1273C115.009 111.25 128.877 131.662 154.05 125.136C170.773 120.8 177.807 107.956 180.068 94.9348C163.611 81.487 132.444 89.2313 118.525 94.9859C116.029 95.2492 112.973 95.6313 109.652 96.1273Z" fill="#F2D1BB"/>
<path d="M106.537 117.143C106.537 123.952 108.669 140.234 117.195 150.891" stroke="#232323" stroke-width="1.42099" stroke-linecap="round"/>
<path d="M63.9072 175.759C63.4632 188.192 67.7262 213.415 88.3305 214.836C108.935 216.257 109.349 195.593 106.981 185.084C106.833 166.286 103.251 124.514 90.1068 107.818" stroke="#232323" stroke-width="1.42099" stroke-linecap="round"/>
<path d="M122.966 69.6284C122.226 71.1086 121.101 74.6019 122.522 76.7334" stroke="#232323" stroke-width="1.42099" stroke-linecap="round"/>
<path d="M148.722 70.9607C149.462 72.4409 150.587 75.9342 149.166 78.0656" stroke="#232323" stroke-width="1.42099" stroke-linecap="round"/>
<path d="M135.401 119.363C125.809 114.745 117.49 98.7884 114.53 91.3874C105.293 68.2963 114.53 35.8799 120.303 22.5581C124.743 20.6339 137.887 17.8511 154.939 22.1141C171.991 26.377 170.629 85.4666 167.817 114.478C161.008 118.031 144.992 123.981 135.401 119.363Z" fill="#E5A072"/>
<ellipse opacity="0.3" cx="122.227" cy="62.5051" rx="4.6791" ry="2.21308" transform="rotate(4.89398 122.227 62.5051)" fill="#E50A3E"/>
<ellipse opacity="0.3" cx="148.245" cy="63.7956" rx="4.6791" ry="2.21308" transform="rotate(4.89398 148.245 63.7956)" fill="#E50A3E"/>
<path d="M158.596 118.324C153.393 120.053 147.318 121.373 141.942 120.98C145.524 115.579 149.003 107.587 151.387 95.8279C145.614 100.121 132.292 101.69 121.635 84.2824C122.513 85.0933 123.351 85.8939 124.162 86.6701C128.686 90.9949 132.418 94.5633 138.065 94.9398C147.903 95.5957 154.939 86.9467 162.044 72.7368L158.596 118.324Z" fill="#BE693B"/>
<path d="M145.532 80.8793C143.195 83.1738 139.22 84.7175 134.689 84.1727C130.987 83.7287 128.31 82.6103 126.535 81.195C123.701 78.935 123.159 75.9227 124.391 73.6729C125.26 72.0875 126.761 71.7127 128.406 71.7531C129.608 71.7747 130.893 72.024 132.062 72.1783C134.323 72.4708 138.16 68.9959 142.622 70.4141C143.613 70.7298 144.636 71.2875 145.678 72.1783C148.711 74.7755 148.15 78.3009 145.53 80.8793H145.532Z" fill="#232323"/>
<path d="M134.689 84.1727C139.22 84.7176 143.195 83.1739 145.532 80.8794C145.783 80.6321 146.015 80.376 146.227 80.1129C143.59 78.7032 139.814 77.9098 135.661 78.0913C131.83 78.2618 128.396 79.2311 125.926 80.665C126.116 80.8456 126.319 81.0225 126.535 81.195C128.309 82.6104 130.987 83.7288 134.689 84.1727Z" fill="#E50A3E"/>
<path d="M127.055 75.5238C129.365 76.0466 136.84 77.3725 143.695 74.5123V74.5139C144.037 74.3706 144.232 74.0008 144.171 73.6311L143.716 70.8594C143.347 70.676 142.982 70.529 142.621 70.4141C139.852 69.5338 137.323 70.5389 135.262 71.3579C134.003 71.8583 132.919 72.2892 132.062 72.1783C131.752 72.1373 131.433 72.0897 131.11 72.0414C130.217 71.9077 129.289 71.769 128.406 71.7531C127.856 71.7396 127.322 71.7725 126.823 71.8814L126.44 74.6165C126.381 75.0351 126.647 75.4309 127.055 75.5238Z" fill="white"/>
<path d="M135.401 48.3135C134.808 52.014 133.003 60.0367 130.516 62.5234C127.407 65.6318 132.292 68.7402 135.845 67.8521" stroke="#232323" stroke-width="1.77624" stroke-linecap="round"/>
<path d="M156.506 42.4263L157.39 43.6634C157.827 44.2759 157.35 45.126 156.598 45.0919C149.049 44.7497 144.031 45.8572 141.851 46.6888C141.45 46.8418 140.967 46.7277 140.878 46.3077C140.72 45.559 140.954 44.4626 142.505 43.429C144.551 42.0651 152.487 41.8194 155.87 42.0636C156.127 42.0821 156.357 42.217 156.506 42.4263Z" fill="#232323"/>
<path d="M117.248 40.4493L116.286 41.6269C115.81 42.21 116.231 43.0891 116.984 43.1035C124.54 43.2481 129.476 44.6764 131.598 45.6467C131.988 45.8251 132.478 45.7424 132.593 45.329C132.799 44.592 132.636 43.4828 131.155 42.3515C129.202 40.8587 121.298 40.1025 117.906 40.1283C117.648 40.1302 117.41 40.2501 117.248 40.4493Z" fill="#232323"/>
<mask id="mask1_28_6010" style="mask-type:alpha" maskUnits="userSpaceOnUse" x="141" y="43" width="20" height="13">
<path d="M159.107 55.6678C155.669 56.3553 147.382 55.2967 143.094 54.4228C142.83 54.369 142.605 54.1979 142.496 53.9512C141.241 51.1155 140.335 45.3737 147.117 43.6782C155.998 41.4579 163.547 54.7797 159.107 55.6678Z" fill="#232323"/>
</mask>
<g mask="url(#mask1_28_6010)">
<ellipse cx="149.166" cy="51.8661" rx="4.88466" ry="4.88466" fill="white"/>
<ellipse cx="150.054" cy="51.866" rx="3.10842" ry="3.10842" fill="#232323"/>
</g>
<mask id="mask2_28_6010" style="mask-type:alpha" maskUnits="userSpaceOnUse" x="117" y="42" width="20" height="14">
<path d="M135.126 54.7796C131.689 55.4671 123.402 54.4085 119.114 53.5346C118.849 53.4808 118.625 53.3097 118.515 53.063C117.26 50.2273 116.355 44.4856 123.137 42.79C132.018 40.5697 139.567 53.8915 135.126 54.7796Z" fill="#232323"/>
</mask>
<g mask="url(#mask2_28_6010)">
<ellipse cx="125.185" cy="50.9779" rx="4.88466" ry="4.88466" fill="white"/>
<ellipse cx="126.073" cy="50.978" rx="3.10842" ry="3.10842" fill="#232323"/>
</g>
<path d="M144.281 54.9744C146.206 55.1224 150.676 55.596 153.162 56.3065" stroke="#232323" stroke-width="1.42099" stroke-linecap="round"/>
<path d="M120.303 54.0864C122.227 54.2344 126.697 54.7081 129.184 55.4186" stroke="#232323" stroke-width="1.42099" stroke-linecap="round"/>
<path d="M133.624 23.0021C127.851 21.966 116.039 25.1336 114.973 46.0933C113.641 72.2928 115.862 77.6215 123.855 87.8349L123.411 93.6077C116.01 94.9398 100.142 97.693 95.8789 98.0483C99.4314 89.1671 106.714 68.4739 107.424 56.7507C108.313 42.0967 108.757 6.12788 140.285 1.68728C146.946 -0.53302 162.843 -0.355395 173.145 18.1175C186.023 41.2086 192.24 110.926 192.684 118.475C193.128 126.024 193.572 142.898 195.792 145.119L190.908 140.234C188.095 145.711 180.517 158.529 172.701 165.989C164.886 173.45 154.939 177.979 150.942 179.311C152.423 178.423 155.472 176.292 155.827 174.871C156.271 173.094 146.946 174.427 145.17 160.661C144.204 153.175 146.055 148.411 148.131 145.756C144.28 149.902 140.283 157.95 143.393 169.542C141.913 168.506 139.486 162.97 141.617 149.115C144.281 131.797 155.383 123.804 158.935 98.4923C162.488 73.1809 160.268 40.7645 150.054 30.9952C139.841 21.2259 134.512 23.1224 133.624 23.0021Z" fill="#232323" stroke="#232323" stroke-width="1.77624" stroke-linecap="round"/>
<path d="M13.2832 79.3977C19.352 84.2824 32.5554 94.4069 36.8184 95.8279" stroke="#232323" stroke-width="1.42099" stroke-linecap="round"/>
<path d="M49.6973 82.0621C50.7334 81.9141 53.3386 82.595 55.47 86.5027C57.6015 90.4104 58.4304 92.5715 58.5785 93.1636C63.1671 97.6042 71.7226 108.439 69.2359 116.255L69.68 118.031C68.9399 122.027 65.2394 128.155 56.3582 120.695" stroke="#232323" stroke-width="1.42099" stroke-linecap="round"/>
<path d="M49.2483 156.808C45.4676 148.508 53.1042 140.626 57.6892 137.57L62.1298 152.668C62.2731 152.578 62.4148 152.487 62.5548 152.397L62.5738 152.668C61.0944 154.716 56.6929 157.657 49.2483 156.808Z" fill="#DE8845"/>
<path d="M194.712 152.757L192.239 157.552L204.229 165.101L207.781 159.328C212.755 162.17 215.478 167.322 216.218 169.542L214.936 171.038C209.114 167.766 190.791 158.304 190.019 154.444C189.406 151.379 192.271 152.063 194.712 152.757Z" fill="#DE8845"/>
<path d="M207.338 160.661C207.93 157.7 210.535 151.335 216.219 149.559C221.903 147.783 228.357 148.819 230.873 149.559" stroke="black" stroke-width="1.42099" stroke-linecap="round"/>
<path d="M273.279 143.786C273.279 141.566 268.838 139.346 260.845 137.57C254.451 136.149 246.931 134.905 243.971 134.461" stroke="black" stroke-width="1.42099" stroke-linecap="round"/>
<path d="M62.575 152.668C59.3186 142.898 52.184 122.827 49.6973 120.695" stroke="#232323" stroke-width="1.42099" stroke-linecap="round"/>
<path fill-rule="evenodd" clip-rule="evenodd" d="M160.664 105.444C160.158 102.835 157.633 101.13 155.024 101.636L95.3859 113.206C92.777 113.712 91.0724 116.237 91.5785 118.846L105.439 190.294C105.945 192.903 108.471 194.607 111.08 194.101L114.026 193.53L110.191 194.274C108.486 194.604 107.779 196.656 108.918 197.967C110.056 199.278 112.187 198.865 112.753 197.223L114.026 193.53C114.03 193.529 114.033 193.53 114.036 193.533L115.311 195.001C117.02 196.968 120.217 196.348 121.066 193.885L121.701 192.043C121.702 192.041 121.703 192.04 121.705 192.04C121.707 192.039 121.709 192.04 121.71 192.041L122.992 193.517C124.699 195.482 127.893 194.859 128.742 192.399C129.136 191.256 130.11 190.409 131.296 190.179L135.143 189.433C136.329 189.203 137.549 189.624 138.342 190.536C140.049 192.501 143.245 191.884 144.093 189.424L144.73 187.576C144.731 187.574 144.732 187.573 144.734 187.572C144.736 187.572 144.737 187.573 144.739 187.574L146.016 189.045C147.725 191.012 150.922 190.391 151.771 187.928L152.406 186.086C152.407 186.085 152.408 186.083 152.41 186.083C152.412 186.083 152.413 186.083 152.415 186.085L153.695 187.559C155.403 189.524 158.597 188.905 159.446 186.443L160.082 184.597C160.083 184.596 160.084 184.594 160.086 184.594C160.088 184.594 160.09 184.594 160.091 184.596L161.37 186.068C163.078 188.034 166.274 187.414 167.123 184.952L167.759 183.108C167.759 183.106 167.761 183.105 167.762 183.105C167.764 183.104 167.766 183.105 167.767 183.106L169.049 184.582C170.756 186.547 173.949 185.927 174.798 183.467L175.435 181.618C175.435 181.617 175.436 181.616 175.438 181.616C175.44 181.615 175.441 181.613 175.441 181.611L160.664 105.444ZM133.22 189.806C131.515 190.137 130.808 192.189 131.946 193.499C133.085 194.81 135.216 194.397 135.781 192.755C136.347 191.114 134.924 189.475 133.22 189.806Z" fill="white"/>
<rect opacity="0.5" x="97.3516" y="120.177" width="59.5469" height="4.81187" rx="2.40593" transform="rotate(-10.979 97.3516 120.177)" fill="#D9D9D9"/>
<rect opacity="0.5" x="106.285" y="166.234" width="59.5469" height="4.81187" rx="2.40593" transform="rotate(-10.979 106.285 166.234)" fill="#D9D9D9"/>
<rect opacity="0.5" x="109.035" y="180.406" width="59.5469" height="4.81187" rx="2.40593" transform="rotate(-10.979 109.035 180.406)" fill="#D9D9D9"/>
<rect opacity="0.5" x="98.7266" y="127.263" width="59.5469" height="4.81187" rx="2.40593" transform="rotate(-10.979 98.7266 127.263)" fill="#D9D9D9"/>
<rect opacity="0.5" x="107.66" y="173.32" width="59.5469" height="4.81187" rx="2.40593" transform="rotate(-10.979 107.66 173.32)" fill="#D9D9D9"/>
<path fill-rule="evenodd" clip-rule="evenodd" d="M143.759 137.289C144.917 135.572 144.464 133.235 142.748 132.077C141.033 130.918 138.698 131.371 137.54 133.088L129.501 145.005L124.831 141.851C123.113 140.691 120.781 141.143 119.622 142.862C118.463 144.58 118.915 146.914 120.633 148.074L128.408 153.326C129.202 153.863 130.127 154.054 131.007 153.935C132.034 153.798 132.999 153.239 133.624 152.313L143.759 137.289Z" fill="#23BA3B"/>
</g>
<rect width="14.1822" height="7.0681" transform="matrix(0.881896 -0.471444 0.470938 0.882166 191.492 29.8894)" fill="#FFB21D"/>
</svg>
